<svg xmlns="http://www.w3.org/2000/svg" xml:space="preserve" style="enable-background:new 0 0 256 256" viewBox="0 0 256 256"><path d="M127.6 0 7 42.4l19.1 157.8L127.7 256l102.2-56.6L249 41.6 127.6 0z" style="fill:#b3b3b3"/><path d="M237 50.8 127.3 13.4v229.2l91.9-50.8 17.8-141z" style="fill:#af2b2d"/><path d="m20.5 51.4 16.3 141.1 90.5 50.1V13.4l-106.8 38z" style="fill:#df2e31"/><path d="m152.7 127.4-25.2-52.6-22.2 52.6h47.4zm9.7 22.2H95.5l-15 37.3-27.8.5 74.6-165.7 77.2 165.7h-25.8l-16.3-37.8z" style="fill:#f2f2f2"/><path d="m127.3 21.7.2 53.1 25.2 52.6h-25.3l-.1 22h35l16.4 37.9 26.6.5-78-166.1z" style="fill:#b3b3b3"/></svg>