<svg xmlns="http://www.w3.org/2000/svg" viewBox="0 0 256 256" style="enable-background:new 0 0 256 256" xml:space="preserve"><path d="m224.4 52.3-80.8-48a30.6 30.6 0 0 0-31.2 0l-80.8 48C22 58 16 68.6 16 80.1V176c0 11.4 5.9 22 15.6 27.7l80.8 47.9c4.8 2.8 10.2 4.3 15.6 4.3s10.8-1.4 15.6-4.3l80.8-47.9C234 198 240 187.5 240 176V80.1c0-11.5-5.9-22.1-15.6-27.8z" style="fill:#fff"/><path d="m224.4 52.3-80.8-48C138.8 1.5 133.4 0 128 0s-10.8 1.4-15.6 4.3l-80.8 48C22 58 16 68.6 16 80.1V176c0 11.4 5.9 22 15.6 27.7l80.8 47.9c4.8 2.8 10.2 4.3 15.6 4.3s10.8-1.4 15.6-4.3l80.8-47.9C234 198 240 187.5 240 176V80.1c0-11.5-6-22.1-15.6-27.8zM115.2 246.8l-80.8-47.9c-7.9-4.7-12.8-13.4-12.8-22.8v-96c0-9.4 4.9-18.1 12.8-22.8l80.8-47.9c3.9-2.3 8.3-3.5 12.7-3.5 4.4 0 8.9 1.2 12.8 3.5l80.8 47.9c6.6 3.9 11.1 10.8 12.4 18.5-2.7-5.7-8.7-7.3-15.8-3.1l-76.4 47.2c-9.6 5.5-16.6 11.8-16.6 23.3v94.2c0 6.9 2.8 11.3 7.1 12.6-1.4.2-2.8.4-4.2.4-4.5-.1-8.9-1.3-12.8-3.6z" style="fill:#283037"/><path d="m203.2 185.3-20.1 12c-.6.3-.9.6-.9 1.3v5.2c0 .6.4.9.9.6l20.4-12.4c.6-.3.6-.9.6-1.5v-4.6c.1-.7-.4-.9-.9-.6z" style="fill:#4da825"/><path d="M160.4 141c.6-.3 1.2.1 1.2.9l.1 6.9c2.9-1.1 5.4-1.4 7.8-.9.5.1.7.8.5 1.6l-1.6 6.1c-.1.4-.4.9-.7 1.2-.1.1-.2.2-.4.3-.2.1-.4.1-.6.1-1.1-.2-3.6-.8-7.4 1.2-4.1 2.1-5.6 5.6-5.5 8.3.1 3.1 1.6 4.1 7.2 4.2 7.4.1 10.7 3.4 10.8 10.9.1 7.4-3.9 15.3-9.9 20.2l.1 6.9c0 .8-.6 1.8-1.2 2.1l-4.1 2.3c-.6.3-1.2-.1-1.2-.9l-.1-6.8c-3.5 1.4-7.1 1.8-9.3.9-.4-.1-.6-.8-.4-1.5l1.5-6.2c.1-.5.4-1 .8-1.3.1-.1.2-.2.4-.3.2-.1.4-.1.6-.1 2.4.8 5.6.4 8.6-1.1 3.8-1.9 6.4-5.8 6.3-9.7-.1-3.5-1.9-4.9-6.6-5-5.9 0-11.4-1.1-11.4-9.8-.1-7.1 3.6-14.5 9.5-19.2l-.1-6.9c0-.8.5-1.8 1.2-2.1l3.9-2.3z" style="fill:#fff"/></svg>