<svg xmlns="http://www.w3.org/2000/svg" viewBox="0 0 256 256" style="enable-background:new 0 0 256 256" xml:space="preserve"><path d="M121.3 1.7c4.1-2.3 9.2-2.3 13.4 0 20.5 11.5 82.1 46 102.6 57.5 4.1 2.3 6.7 6.6 6.7 11.3v115c0 4.6-2.6 8.9-6.7 11.3-20.5 11.5-82.1 46-102.6 57.5-4.1 2.3-9.2 2.3-13.4 0-20.5-11.5-82.1-46-102.6-57.5-4.1-2.3-6.7-6.6-6.7-11.3v-115c0-4.6 2.6-8.9 6.7-11.3 20.5-11.4 82.1-46 102.6-57.5z" style="fill-rule:evenodd;clip-rule:evenodd;fill:#004482"/><path d="M13.9 191.4c-1.6-2.2-1.9-4.2-1.9-7V70.1c0-4.6 2.5-8.9 6.7-11.2C39.1 47.5 100.5 13.1 121 1.7c4.1-2.3 9.7-2.3 13.9 0 20.4 11.4 81.6 45.5 102 56.9 1.6.9 2.9 2 4 3.5l-227 129.3z" style="fill-rule:evenodd;clip-rule:evenodd;fill:#659ad2"/><path d="M128 42.7c47.2 0 85.5 38.2 85.5 85.3s-38.3 85.3-85.5 85.3-85.5-38.2-85.5-85.3S80.8 42.7 128 42.7zm0 42.6c23.6 0 42.7 19.1 42.7 42.7 0 23.5-19.2 42.7-42.7 42.7S85.3 151.5 85.3 128c0-23.6 19.1-42.7 42.7-42.7z" style="fill-rule:evenodd;clip-rule:evenodd;fill:#fff"/><path d="M240.9 62.2c3.2 2.9 3.1 7.4 3.1 10.9 0 23.1-.2 88.9.1 112.1 0 2.4-.8 5-2 6.9l-116.4-64 115.2-65.9z" style="fill-rule:evenodd;clip-rule:evenodd;fill:#00599c"/></svg>