<svg xmlns="http://www.w3.org/2000/svg" viewBox="0 0 256 256" style="enable-background:new 0 0 256 256" xml:space="preserve"><style>.st3{fill:#fff}</style><path d="M243.9 75.3c0-4.3-.9-8.1-2.8-11.4-1.8-3.2-4.7-5.9-8.3-8-31-17.5-61.8-34.9-92.7-52.4-8.3-4.7-16.4-4.5-24.6.2-12.3 7.1-73.8 41.7-92.3 52.2C15.7 60.2 12 66.8 12 75.3v105.5c0 4.2.9 7.9 2.7 11.2s4.7 6.1 8.5 8.2c18.3 10.4 79.8 45 92.1 52.2 8.2 4.8 16.4 5 24.6.2 30.8-17.5 61.7-34.9 92.7-52.4 3.9-2.2 6.6-4.9 8.5-8.2 1.8-3.2 2.7-6.9 2.7-11.2.1-.1.1-70.4.1-105.5" style="fill:#a179dc"/><path d="M128.3 127.7 14.8 191.9c1.8 3.3 4.7 6.1 8.5 8.2 18.3 10.4 79.8 45 92.1 52.2 8.2 4.8 16.4 5 24.6.2 30.8-17.5 61.7-34.9 92.7-52.4 3.9-2.2 6.6-4.9 8.5-8.2l-112.9-64.2z" style="fill:#280068"/><path d="M243.9 75.3c0-4.3-.9-8.1-2.8-11.4l-112.8 63.8 112.9 64.2c1.8-3.2 2.7-6.9 2.7-11.2V75.3" style="fill:#390091"/><path class="st3" d="M195.2 103.6v12h12.2v-12h6.1v12h12.2v6h-12.2v12h12.2v6h-12.2v12h-6.1v-12h-12.2v12h-6.1v-12h-12.2v-6h12.2v-12h-12.2v-6h12.2v-12h6.1zm12.2 18.1h-12.2v12h12.2v-12z"/><path class="st3" d="M128.6 43.3c31.9 0 59.7 17 74.7 42.3l-.1-.2-37.5 21.2c-7.4-12.3-21-20.6-36.5-20.8h-.5c-23.7 0-42.9 18.9-42.9 42.2 0 7.3 1.9 14.6 5.7 20.9 7.4 12.7 21.3 21.2 37.2 21.2 16.1 0 30-8.7 37.4-21.5l-.2.3 37.4 21.3c-14.7 25.1-42.2 42-73.7 42.4h-.9c-32 0-59.9-17.1-74.8-42.5-7.2-12.4-11.4-26.8-11.4-42.1-.1-46.8 38.5-84.7 86.1-84.7z"/></svg>