<svg xmlns="http://www.w3.org/2000/svg" viewBox="0 0 256 256" style="enable-background:new 0 0 256 256" xml:space="preserve"><path d="M220.6 231.1 128 256l-92.6-24.9L14 0h228l-21.4 231.1z" style="fill:#265aa6"/><path d="M128 18.7v217.4l.2.1 75-20.1 17.3-197.4H128z" style="fill:#449dd7"/><path d="m127.9 76.5-66.3 27.6 2.2 27.2 64.1-27.3 68.2-29.1 2.8-27.9-71 29.5z" style="fill:#fff"/><linearGradient id="SVGID_1_" gradientUnits="userSpaceOnUse" x1="94.75" y1="1151.3" x2="94.75" y2="1096.5" gradientTransform="translate(0 -1020)"><stop offset=".39" style="stop-color:#dadada;stop-opacity:0"/><stop offset="1" style="stop-color:#dadada"/></linearGradient><path d="m61.6 104.1 2.2 27.2 64.1-27.3V76.5l-66.3 27.6z" style="fill:url(#SVGID_1_)"/><linearGradient id="a" gradientUnits="userSpaceOnUse" x1="61.7" y1="1175.8" x2="193.7" y2="1175.8" gradientTransform="translate(0 -1020)"><stop offset="0" style="stop-color:#eeeded"/><stop offset="1" style="stop-color:#fff"/></linearGradient><path style="fill:url(#b)" d="m61.7 104.1 2.2 27.2 98.4.4-2.2 36.3-32.4 9.1-31.1-7.8-1.9-22.6H65.8l3.8 43.6 58.4 17.2 58.1-16.9 7.6-86.5h-132z"/><path d="M127.9 104.1H61.6l2.2 27.2 64.1.3v-27.5z" style="opacity:5.000000e-02;fill:#ebebeb;enable-background:new"/><path style="fill:#ebebeb" d="m127.9 177-.3.1-31.1-7.8-1.9-22.6H65.7l3.8 43.6 58.4 17.2V177z"/><linearGradient id="b" gradientUnits="userSpaceOnUse" x1="55.7" y1="585.5" x2="198.9" y2="585.5" gradientTransform="translate(0 -510)"><stop offset="0" style="stop-color:#eeeded"/><stop offset="1" style="stop-color:#fff"/></linearGradient><path style="fill:url(#b)" d="m55.7 47 3.4 27.9h72.7l-3.9 1.6V104l68.2-29.1 2.8-27.9H55.7z"/><path d="M127.9 47H55.7l3.4 27.9h68.8V47z" style="fill:#ebebeb"/></svg>