<svg xmlns="http://www.w3.org/2000/svg" viewBox="0 0 256 256" style="enable-background:new 0 0 256 256" xml:space="preserve"><style>.st0{fill:#fff}</style><path class="st0" d="M127.8 0H30v168l114 16L127.8 0z"/><path d="M226 168V56l-39.8-16-16-40h-42.4l.2 184 98-16z" style="fill:#e8e6e6"/><path class="st0" d="M170.2 56V0L226 56h-55.8z"/><path d="M30 168h196v88H30v-88z" style="fill:#b3da73"/><path class="st0" d="m107.5 199.1-5.6 6.6c-2.5-3-6.2-5-9.5-5-6 0-10.6 4.8-10.6 11 0 6.4 4.6 11.2 10.6 11.2 3.2 0 6.9-1.7 9.5-4.5l5.6 6c-4.1 4.2-10.1 7-15.7 7-11.4 0-19.9-8.4-19.9-19.6 0-11 8.7-19.3 20.3-19.3 5.7.1 11.6 2.6 15.3 6.6zm35.4-2.3-3.6 7.6c-4-2.3-9-4-12.1-4-2.5 0-4.2.9-4.2 2.8 0 6.6 20 2.8 20 16.6 0 7.6-6.7 11.6-15.2 11.6-6.3 0-12.8-2.4-17.3-6.1l3.7-7.5c3.9 3.4 9.8 5.7 13.7 5.7 3 0 4.9-1.1 4.9-3.3 0-6.7-20-2.7-20-16.2 0-7 6-11.5 15.1-11.5 5.5 0 11.1 1.7 15 4.3zm17.6 34.2-14.8-38H156l9.7 28 9.7-28h9.9l-14.9 38h-9.9z"/></svg>