<svg xmlns="http://www.w3.org/2000/svg" viewBox="0 0 256 256" style="enable-background:new 0 0 256 256" xml:space="preserve"><style>.st0{fill:#d70751}</style><path class="st0" d="M148.1 135.3c-4.2.1.8 2.2 6.4 3 1.5-1.2 2.9-2.4 4.2-3.6-3.5.9-7 .9-10.6.6m22.8-5.7c2.5-3.5 4.4-7.3 5-11.2-.6 2.8-2.1 5.2-3.5 7.8-7.9 5-.7-3 0-6-8.5 10.7-1.2 6.4-1.5 9.4m8.4-21.9c.5-7.6-1.5-5.2-2.2-2.3.8.4 1.5 5.4 2.2 2.3M132 3.3c2.3.4 4.9.7 4.5 1.3 2.5-.6 3.1-1.1-4.5-1.3m4.5 1.3-1.6.3 1.5-.1.1-.2"/><path class="st0" d="M207.2 110.6c.3 6.9-2 10.2-4.1 16.1l-3.7 1.8c-3 5.8.3 3.7-1.9 8.3-4.7 4.2-14.2 13-17.3 13.8-2.2 0 1.5-2.6 2-3.6-6.3 4.3-5 6.5-14.6 9.1l-.3-.6c-23.7 11.1-56.6-10.9-56.2-41-.3 1.9-.7 1.4-1.2 2.2-1.2-15.5 7.2-31 21.3-37.4 13.8-6.8 30-4 39.9 5.2-5.4-7.1-16.3-14.7-29.1-14-12.6.2-24.3 8.2-28.3 16.8-6.4 4-7.2 15.6-10 17.7-3.8 27.7 7.1 39.7 25.5 53.8 2.9 1.9.8 2.2 1.2 3.7-6.1-2.9-11.7-7.2-16.3-12.5 2.4 3.6 5.1 7 8.5 9.8-5.8-2-13.5-13.9-15.7-14.4 9.9 17.8 40.3 31.2 56.2 24.5-7.4.3-16.7.2-25-2.9-3.5-1.8-8.2-5.5-7.4-6.2 21.7 8.1 44.1 6.1 62.9-8.9 4.8-3.7 10-10 11.5-10.1-2.3 3.4.4 1.6-1.4 4.7 4.8-7.7-2.1-3.1 4.9-13.2l2.6 3.6c-1-6.4 7.9-14.1 7-24.2 2-3.1 2.3 3.3.1 10.4 3-7.9.8-9.1 1.6-15.6.8 2.2 1.9 4.5 2.5 6.8-2-7.6 2-12.8 3-17.2-1-.4-3 3.4-3.5-5.6.1-3.9 1.1-2 1.5-3-.8-.4-2.8-3.4-4-9.2.9-1.3 2.4 3.5 3.6 3.7-.8-4.6-2.1-8-2.2-11.5-3.5-7.4-1.2 1-4.1-3.2-3.8-11.7 3.1-2.7 3.6-8 5.7 8.2 8.9 21 10.4 26.2-1.1-6.4-3-12.7-5.2-18.7 1.7.7-2.8-13.2 2.2-4-5.4-19.7-23-38.1-39.2-46.8 2 1.8 4.5 4.1 3.6 4.4-8.1-4.8-6.6-5.2-7.8-7.2-6.6-2.7-7 .2-11.3 0-12.4-6.5-14.7-5.9-26.1-10l.5 2.4c-8.2-2.7-9.5 1-18.4 0-.5-.4 2.8-1.5 5.6-1.9-7.9 1-7.5-1.6-15.3.3 1.9-1.3 3.9-2.2 6-3.4-6.5.4-15.4 3.8-12.7.7C102.1 7 83.3 13.6 72.8 23.4l-.3-2.2c-4.8 5.8-21 17.2-22.3 24.7l-1.3.3c-2.5 4.2-4.1 9-6.1 13.4-3.3 5.6-4.8 2.1-4.3 3-6.4 13-9.6 24-12.4 33 2 2.9 0 17.7.8 29.5-3.2 58.3 41 114.9 89.3 128 7.1 2.5 17.6 2.4 26.6 2.7-10.6-3-11.9-1.6-22.2-5.2-7.4-3.5-9.1-7.5-14.3-12l2.1 3.7c-10.3-3.6-6-4.5-14.4-7.2l2.2-2.9c-3.3-.3-8.9-5.6-10.4-8.6l-3.7.1c-4.4-5.4-6.7-9.3-6.6-12.3l-1.2 2.1c-1.3-2.3-16.2-20.3-8.5-16.1-1.4-1.3-3.3-2.1-5.4-5.9l1.6-1.8c-3.7-4.8-6.8-10.9-6.6-12.9 2 2.7 3.3 3.2 4.7 3.6-9.4-23.2-9.9-1.3-17-23.6l1.5-.1c-1.1-1.7-1.8-3.6-2.8-5.4L43 145c-6.7-7.8-1.9-33.1-.9-46.9.7-5.6 5.6-11.6 9.4-21.1l-2.3-.4c4.4-7.6 25-30.7 34.6-29.5 4.6-5.8-.9 0-1.8-1.5 10.2-10.5 13.4-7.4 20.2-9.3 7.4-4.4-6.4 1.7-2.8-1.7 12.8-3.3 9.1-7.4 25.8-9.1 1.8 1-4.1 1.5-5.6 2.8 10.7-5.2 33.8-4 48.7 2.9 17.4 8.1 36.9 32.1 37.7 54.7l.9.2c-.4 9 1.4 19.4-1.8 28.9l2.1-4.4"/><path class="st0" d="m101.7 141.1-.6 3c2.8 3.8 5 7.9 8.6 10.9-2.6-5.1-4.5-7.2-8-13.9m6.6-.3c-1.5-1.6-2.4-3.6-3.3-5.6.9 3.4 2.9 6.4 4.6 9.4l-1.3-3.8m116.9-25.3-.6 1.6c-1.1 8.1-3.6 16.1-7.4 23.6 4.1-7.9 6.8-16.5 8-25.2M132.8 1.3c2.9-1.1 7.1-.6 10.1-1.3-4 .3-7.9.5-11.8 1l1.7.3M32 54.8c.7 6.1-4.6 8.5 1.2 4.5 3-7-1.3-2-1.2-4.5m-6.8 28.3c1.3-4.1 1.6-6.5 2.1-8.9-3.7 4.7-1.7 5.7-2.1 8.9"/></svg>