<svg xmlns="http://www.w3.org/2000/svg" xml:space="preserve" style="enable-background:new 0 0 256 256" viewBox="0 0 256 256"><style>.st0{fill:#364548}.st5{fill:#23a3c2}.st5,.st6,.st7{fill-rule:evenodd;clip-rule:evenodd}.st6{fill:#34bbde}.st7{fill:#d3ecec}</style><path d="m254.1 109.8 1.9-3.7-3.6-2.1c-8.8-5-20.4-5.7-30.3-2.8-1.2-10.5-8.2-19.6-16.4-26.2l-3.3-2.6-2.7 3.1c-5.5 6.3-7.2 16.8-6.4 24.9.6 5.9 2.4 12 6.1 16.7-2.8 1.7-6 3-8.8 4-5.8 1.9-12.1 3-18.2 3h-13.2V97.8H133V46h-31.4v25.9H49.3v25.9H23.1v26.5H.7l-.4 3.9c-1.2 13.1.6 26.2 6 38.1l2.4 4.7.3.4C25.2 198.6 53.5 210 84.4 210c59.8 0 109.1-26.4 131.7-82.3 15.1.8 30.6-3.6 38-17.9z" class="st0"/><path d="M217.7 107.6c1.8-13.5-8.4-24.1-14.8-29.1-7.3 8.3-8.4 30.2 3 39.4-6.4 5.6-19.8 10.7-33.6 10.7H4.7c-1.3 14.2 1.2 27.3 6.9 38.6l1.9 3.5c1.2 2 2.5 4 4 5.9 6.9.4 13.2.6 19.1.5 11.4-.2 20.7-1.6 27.8-4 1.1-.3 2.2.3 2.5 1.3s-.2 2.1-1.2 2.5c-.9.3-1.9.6-2.9.9-5.6 1.6-11.5 2.6-19.2 3.1.5 0-.5.1-.5.1-.3 0-.6.1-.9.1-3 .2-6.3.2-9.6.2-3.7 0-7.3-.1-11.3-.3l-.1.1C35.2 196.6 57 206 84.4 206c57.9 0 107.1-25.4 128.8-82.5 15.4 1.6 30.3-2.3 37-15.4-10.7-6.4-24.5-4.5-32.5-.5" style="fill-rule:evenodd;clip-rule:evenodd;fill:#22a0c8"/><path d="M217.7 107.6c1.8-13.5-8.4-24.1-14.8-29.1-7.3 8.3-8.4 30.2 3 39.4-6.4 5.6-19.8 10.7-33.6 10.7H14.6c-.7 21.8 7.5 38.3 21.9 48.3 11.4-.2 20.7-1.6 27.8-4 1.1-.3 2.2.3 2.5 1.3s-.2 2.1-1.2 2.5c-.9.3-1.9.6-2.9.9-5.6 1.6-12 2.8-19.7 3.2l-.2-.2c19.7 10 48.3 10 81.1-2.5 36.8-14 71-40.6 94.8-71.1-.3.2-.7.4-1 .6" style="fill-rule:evenodd;clip-rule:evenodd;fill:#37b1d9"/><path d="M5 145.9c1 7.6 3.3 14.8 6.6 21.3l1.9 3.5c1.2 2 2.5 4 4 5.9 6.9.4 13.2.6 19.1.5 11.4-.2 20.7-1.6 27.8-4 1.1-.3 2.2.3 2.5 1.3s-.2 2.1-1.2 2.5c-.9.3-1.9.6-2.9.9-5.6 1.6-12 2.7-19.7 3.2h-1c-3 .2-6.3.3-9.6.3-3.7 0-7.4-.1-11.4-.3 14 15.5 35.9 24.9 63.3 24.9 49.6 0 92.7-18.6 117.8-59.8H5" style="fill-rule:evenodd;clip-rule:evenodd;fill:#1b81a5"/><path d="M16.1 145.9c3 13.4 10.1 23.9 20.4 31 11.4-.2 20.7-1.6 27.8-4 1.1-.3 2.2.3 2.5 1.3s-.2 2.1-1.2 2.5c-.9.3-1.9.6-2.9.9-5.6 1.6-12.1 2.7-19.8 3.2 19.7 10 48.2 9.9 81-2.6 19.8-7.5 38.9-18.8 56-32.3H16.1" style="fill-rule:evenodd;clip-rule:evenodd;fill:#1d91b4"/><path d="M27.5 102.1h22.7v22.4H27.5v-22.4zm1.9 1.9h1.8v18.7h-1.8V104zm3.3 0h1.9v18.7h-1.9V104zm3.4 0H38v18.7h-1.9V104zm3.5 0h1.9v18.7h-1.9V104zm3.4 0h1.9v18.7H43V104zm3.5 0h1.8v18.7h-1.8V104zm7.1-27.8h22.7v22.4H53.6V76.2zm1.9 1.9h1.8v18.7h-1.8V78.1zm3.4 0h1.9v18.7h-1.9V78.1zm3.4 0h1.9v18.7h-1.9V78.1zm3.4 0h1.9v18.7h-1.9V78.1zm3.5 0H71v18.7h-1.9V78.1h.1zm3.4 0h1.8v18.7h-1.8V78.1z" class="st5"/><path d="M53.6 102.1h22.7v22.4H53.6v-22.4zm1.9 1.9h1.8v18.7h-1.8V104zm3.4 0h1.9v18.7h-1.9V104zm3.4 0h1.9v18.7h-1.9V104zm3.4 0h1.9v18.7h-1.9V104zm3.5 0H71v18.7h-1.9V104h.1zm3.4 0h1.8v18.7h-1.8V104z" class="st6"/><path d="M79.8 102.1h22.7v22.4H79.8v-22.4zm1.9 1.9h1.8v18.7h-1.8V104zm3.3 0h1.9v18.7H85V104zm3.5 0h1.9v18.7h-1.9V104zm3.4 0h1.9v18.7h-1.9V104zm3.4 0h1.9v18.7h-1.9V104zm3.5 0h1.8v18.7h-1.8V104z" class="st5"/><path d="M79.8 76.2h22.7v22.4H79.8V76.2zm1.9 1.9h1.8v18.7h-1.8V78.1zm3.3 0h1.9v18.7H85V78.1zm3.5 0h1.9v18.7h-1.9V78.1zm3.4 0h1.9v18.7h-1.9V78.1zm3.4 0h1.9v18.7h-1.9V78.1zm3.5 0h1.8v18.7h-1.8V78.1zm7.1 24h22.7v22.4h-22.7v-22.4zm1.9 1.9h1.8v18.7h-1.8V104zm3.4 0h1.9v18.7h-1.9V104zm3.4 0h1.9v18.7h-1.9V104zm3.4 0h1.9v18.7H118V104zm3.5 0h1.9v18.7h-1.9V104zm3.4 0h1.8v18.7h-1.8V104z" class="st6"/><path d="M105.9 76.2h22.7v22.4h-22.7V76.2zm1.9 1.9h1.8v18.7h-1.8V78.1zm3.4 0h1.9v18.7h-1.9V78.1zm3.4 0h1.9v18.7h-1.9V78.1zm3.4 0h1.9v18.7H118V78.1zm3.5 0h1.9v18.7h-1.9V78.1zm3.4 0h1.8v18.7h-1.8V78.1z" class="st5"/><path d="M105.9 50.3h22.7v22.4h-22.7V50.3zm1.9 1.9h1.8v18.7h-1.8V52.2zm3.4 0h1.9v18.7h-1.9V52.2zm3.4 0h1.9v18.7h-1.9V52.2zm3.4 0h1.9v18.7H118V52.2zm3.5 0h1.9v18.7h-1.9V52.2zm3.4 0h1.8v18.7h-1.8V52.2z" class="st6"/><path d="M132.1 102.1h22.7v22.4h-22.7v-22.4zm1.9 1.9h1.8v18.7H134V104zm3.3 0h1.9v18.7h-1.9V104zm3.5 0h1.9v18.7h-1.9V104zm3.4 0h1.9v18.7h-1.9V104zm3.4 0h1.9v18.7h-1.9V104zm3.5 0h1.8v18.7h-1.8V104z" class="st5"/><path d="M74.9 160.9c3.5 0 6.3 2.7 6.3 6.1 0 3.4-2.7 6.2-6.2 6.3h-.2c-3.5 0-6.2-2.9-6.2-6.3.1-3.3 2.9-6 6.3-6.1" class="st7"/><path d="M77.4 166.4c-.6 0-1.2-.3-1.6-.9-.5-.9-.2-2 .7-2.5-.5-.2-1-.3-1.6-.3s-1.2.1-1.7.3c-2.3.9-3.4 3.5-2.4 5.8.9 2.3 3.6 3.3 5.9 2.4 2.3-.9 3.4-3.5 2.4-5.8-.4.6-1 1-1.7 1z" class="st0"/><path d="M91.5 205.5c-15.5-7.3-24-17.2-28.7-28-5.8 1.6-12.7 2.7-20.7 3.1-3 .2-6.2.3-9.6.3-3.9 0-7.9-.1-12.2-.3 14.2 14.1 31.7 24.9 64 25.1 2.5 0 4.8-.1 7.2-.2" style="fill-rule:evenodd;clip-rule:evenodd;fill:#bdd9d7"/><path d="M68.5 187.5c-2.1-2.9-4.2-6.5-5.7-10-5.8 1.6-12.7 2.7-20.7 3.1 5.5 3.1 13.4 5.8 26.4 6.9" class="st7"/></svg>