<svg xmlns="http://www.w3.org/2000/svg" xml:space="preserve" style="enable-background:new 0 0 256 256" viewBox="0 0 256 256"><style>.st1{fill:#fff}</style><path d="M183.8 47.6c-13.1-8.2-25.4-11.3-37.7-19.5-7.6-5.2-18.3-17.5-27.1-28.1-1.7 17-6.9 23.9-12.8 28.9-12.6 9.9-20.5 12.8-31.3 18.7-9.1 4.7-58.7 34.3-58.7 97.9S69.6 256 129 256s111-43.1 111-108.5-48.3-95-56.2-99.9z" style="fill:#00598e"/><path d="M163.7 200.7c3.9 0 8.2.3 11.1 2.2 3 2 4.7 6.4 5.7 8.9s0 3.9-2 4.9c-1.7 1-2 .5-3.7-2.7-1.7-3.2-3.2-6.4-11.8-6.4s-11.3 3-15.5 6.4c-4.2 3.5-5.7 4.7-7.2 2.7s-1-3.9 1.7-6.4c2.7-2.5 7.2-6.4 11.3-8.2 4.2-1.6 6.5-1.4 10.4-1.4zm-40.9 28.1c4.9 3.9 12.3 7.2 28.1 7.2s26.9-4.5 31.8-8.2c2.2-1.7 3.2-.3 3.5.7.2 1 .7 2.5-1 4.2-1.2 1.2-12.6 9.1-25.9 10.4-13.4 1.2-31.3 2-42.2-7.9-1.7-1.7-1.2-4.2 0-5.2s2.2-1.7 3.7-1.7 1.2 0 2 .5z" class="st1"/><path d="M62.4 210.1c18.7-.3 22.2-3.5 38.7-10.9 89.3-40 105.8-76.5 109-84.8s7.9-22 3-37c-1-2.9-1.6-5.2-2.1-7.1-11.9-13.3-23.6-20.5-27.2-22.7-12.8-8.2-25.4-11.3-37.7-19.5-7.6-4.9-18.3-17.5-27.1-28.1-1.7 17-6.6 24.2-12.8 28.9-12.6 9.9-20.5 12.8-31.3 18.7C65.6 52.5 16 81.8 16 145.5c0 20.3 5.5 38.9 14.8 54.9l2.4-.1c5.2 4.6 13.4 10.1 29.2 9.8z" style="fill:#0073ba"/><path d="M183.7 47.6c-12.8-8.2-25.4-11.3-37.7-19.5-7.6-4.9-18.3-17.5-27.1-28.1-1.7 17-6.6 24.2-12.8 28.9-12.6 9.9-20.5 12.8-31.3 18.7C65.6 52.5 16 81.8 16 145.5c0 20.3 5.5 38.9 14.8 54.9 20 33.9 57.7 55.6 98.1 55.6 59.5 0 111-43.1 111-108.5 0-35.9-14.6-61-29-77.1C199 57 187.3 49.8 183.7 47.6zm30 28.8c16.2 20.3 24.4 44.1 24.4 71 0 15.6-3 30.3-8.8 43.8-5.6 12.8-13.5 24.1-23.8 33.6-20.2 18.9-47.4 29.3-76.5 29.3-14.4 0-28.5-2.8-42-8.2-13.3-5.3-25.2-13-35.4-22.7-21.7-20.5-33.7-48.1-33.7-77.8 0-26.4 8.6-49.9 25.5-69.8C56.3 60.4 70.3 52 75.6 49.1c2.6-1.4 5.1-2.7 7.4-3.9 7.4-3.8 14.5-7.4 24.1-15 5.2-3.9 10.7-10.1 13-25.9 8.2 9.7 17.6 20.6 24.8 25.3 6.4 4.2 13 7.2 19.3 10.1 6 2.7 12.2 5.5 18.4 9.4l.2.1c18.1 11.3 27.7 23.3 30.9 27.2z" style="fill:#004975"/><path d="M120.1 4.9c3.5 10.1 3 15.3 3 17.5s-1.2 8.2-5.2 11.1c-1.7 1.2-2.2 2.2-2.2 2.5 0 1 2.2 1.7 2.2 3.9 0 2.7-1.2 8.2-14.3 21.2S71.7 85.8 57.2 93s-21.4 6.6-23.4 3.2.7-11.1 9.9-21.2 38-24.7 38-24.7l36-25.2 2-9.6" style="fill:#93c5e4"/><path d="M120.1 4.6c-2.2 16.3-7.2 21.2-13.8 26.4-11.1 8.4-22 13.5-24.4 14.8-6.4 3.2-29.6 16-41.7 34.5-3.7 5.7 0 7.9.7 8.4S50 90.2 68 79.3s25.9-17.2 36-27.8c5.4-5.7 6.2-8.9 6.2-10.4 0-1.7-1.2-2.5-3.2-3-1-.3-1.2-.7 0-1.5s6.4-3.2 7.6-4.2c1.2-1 7.2-4.9 7.4-11.3s-.2-10.8-1.9-16.5zM64.6 184c.3-19.2 18.3-37.2 40.9-37.5 28.9-.3 48.8 28.6 63.4 28.3 12.3-.3 36-24.4 47.6-24.4 12.3 0 15.8 12.8 15.8 20.5s-2.5 21.4-8.4 30.1c-5.9 8.6-9.6 11.8-16.5 11.3-8.9-.7-26.6-28.3-38-28.9-14.3-.5-45.4 29.9-69.8 29.9-14.8 0-19.2-2.2-24.2-5.4-7.4-5.2-11.1-13.1-10.8-23.9z" class="st1"/><path d="M213 77.4c4.9 15.1.3 28.6-3 37-3.2 8.4-19.7 44.9-109 84.8-16.5 7.4-20 10.6-38.7 10.9-15.8.3-23.9-5.2-29.1-9.9l-2.4.1c20 33.9 57.7 55.6 98.1 55.6 59.5 0 111-43.1 111-108.5 0-35.9-14.6-61-29-77.1.5 1.9 1.2 4.2 2.1 7.1z" style="fill:none"/></svg>