<svg xmlns="http://www.w3.org/2000/svg" viewBox="0 0 256 256" style="enable-background:new 0 0 256 256" xml:space="preserve"><path d="M85.5 256c23.5 0 42.5-19.1 42.5-42.7v-42.7H85.5C62 170.7 43 189.8 43 213.3S62 256 85.5 256z" style="fill:#0acf83"/><path d="M43 128c0-23.6 19-42.7 42.5-42.7H128v85.3H85.5C62 170.7 43 151.6 43 128z" style="fill:#a259ff"/><path d="M43 42.7C43 19.1 62 0 85.5 0H128v85.3H85.5C62 85.3 43 66.2 43 42.7z" style="fill:#f24e1e"/><path d="M128 0h42.5C194 0 213 19.1 213 42.7s-19 42.7-42.5 42.7H128V0z" style="fill:#ff7262"/><path d="M213 128c0 23.6-19 42.7-42.5 42.7S128 151.6 128 128s19-42.7 42.5-42.7S213 104.4 213 128z" style="fill:#1abcfe"/></svg>