<svg xmlns="http://www.w3.org/2000/svg" xml:space="preserve" style="enable-background:new 0 0 256 256" viewBox="0 0 256 256"><path d="M76.5 217c-9.8-7.7-20.2-15-27.3-25.3-15-18.2-26.5-39.3-34.3-61.5-4.8-14.4-6.4-29.9-12.5-43.8C-4 76.3 3.5 65.3 14.6 62.1c4.9-.9 13.6-5.6 3.1-2.3-9.4 6.9-10.3-6.2-.7-7.1 6.6-.9 9-6.2 6.7-11-7-4.6 17.1-9.6 4.9-16.4C16 11.7 46.3 9.1 38.8 24.5 37 36.4 60 22.4 54.7 36.1c5.4 6.6 20.3 1.5 19.9 10.7 7.9.5 10.6 7.2 18 7.7 7.7 3.5 21.6 6.2 24.2 14.8-7.6 6-25.2-12.4-26.1 4.2 2.3 24.6 1.7 49.9 10.7 73.4 4.3 14.2 14.6 25.3 23.9 36.4 8.9 10.8 21 18.4 33.4 24.8 10.8 5.1 22.5 8.5 34.3 10.6 4.8-3.7 13.2-17.2 20.7-11.5.4 6.4-14.8 13.4-.7 12.7 8.3-2.5 14 6.4 20.8-1.6 6.3 7.4 26.1-4.7 21.6 10.4-6 3.9-14.8 1.5-20.9 6.9-10-5-17.9 4.5-29 3.3-12.3 2.2-24.7 3.1-37.2 3.1-20.4-1.6-41.2-2.3-60.6-9.4-10.9-3.1-21.6-9.4-31.2-15.6zm17.2 7.5c10.7 4.6 21.1 9.5 32.8 10.9 18.6 2.6 37.7 6.5 56.3 2.9-8.4-3.8-17.1 1.5-25.5-2.7-10.1 2.2-20.9-.6-31.1-1.9-11.6-5.2-24.2-8.7-35.1-15.5-13.6-5 7 6.4 10.7 7.3 8.5 4.8-9.4-2.5-11.9-4.5-7.1-4-8-3.2-.7.9 1.5.9 3 1.8 4.5 2.6zm-20.3-14.4c10.3 3.8 0-7.3-4.8-6.6-2.1-3.6-8-5.9-3.8-7.9-7.5 2.6-7.9-9.9-11.4-8.1-8-2.5-3.1-11.4-12.6-16.8-.9-5.7-9.4-10.7-12.1-19.4-1.2-4.4-9.7-17.2-4.5-5.3 4.4 11.4 12.2 21.2 18.7 31 5 9.3 11 19 20.1 24.8 3.1 2.9 6.1 7.4 10.4 8.3zm-29.8-32.6c.4-1.6 1.9 3.4 0 0zm42.2 37.2c2.3-1-3.3-1.3 0 0zm5.6 2.1c-.6-2.8-2.5 1.6 0 0zm7 2.9c3.4-3.2-5.1-2 0 0zm12.1 6.7c2-3-6.5-1.1 0 0zm-23.1-16.1c5.2-3.3-6.8 0 0 0zm5.2 2.6c-.1-1.7-1.8.8 0 0zm26.4 16.4c4.2 2.7 24.7 5.8 11.9 1.1-2.2.5-23.8-6.1-11.9-1.1zm-41.8-32.5c-.5-1.8-6.6-1.9 0 0zm12.2 7.2c3.2-2.3-6.6-1.8 0 0zm10.3 6.3c4.6-1.7-7.4-1.8 0 0zm-27.5-18.9c5 3.8 20 .5 7.6-2.3-5.7-3-18.4-5.1-9.7 1.8l2.1.5zm34.5 21.1c2.1-3.6-8.7-2.1 0 0zm-10.5-8.4c12.2 3.4-10.2-7.7-3-1.3l1.6.7 1.4.6zm21.1 12.2c11.5.1-10.4-1.6 0 0zm-49.6-31.6c-.4-2.1-2.8.2 0 0zm69 42.5c.4-3.9-3.7 2.9 0 0zm-49.3-30.4c-.7-2.1-3.6-.1 0 0zm-18.6-13.4c6.6-.4-9-2.9 0 0zm-22-14.2c-.8-3.1-7.1-5.7 0 0zm57.7 36.6c-1.2-1.4-.5.3 0 0zm35.9 22c-.1-2.1-1.9.8 0 0zm-39-25.3c.6-2.7-5.7-.8 0 0zm-26.8-16.9c4.9-.6-7.9-3.3 0 0zm45.3 28c7.6-3-7.5-1.4 0 0zm-23.6-15.9c8.8 1.1-10.5-6-1.9-.6l1.9.6zm30.7 18.8c8.2-4.9 5.5 11.5 14 1.4 8.3-6.1-7.2 7.5 3.1 1.1 7.4-5 18.4 2.4 25.4 4.7 5-.2 9.8 4.3 15 1.5 9.8-2.6-19.3-3.9-11.6-8.6-9 2.6-15.7-3.1-20.1-8.9-10.1-2.3-21.8-7.5-26.8-16.4-2.1-3.4 3 .5-1.8-5-6.1-5.4-9.1-11.5-13.2-18.1-4.9-2.6-5.5-10.3-5.9-.3 0-6.3-5.9-10.6-7.3-8.8 0-6.1 6.4-3 1.9-7.5-1-6.3-4.1-12.9-5.1-20-1.5-3.4-.2-10.8-5-3-1.8 8.2-.6-10.1 2.2-4.1 3.6-6.2-1.3-5.4-1.5-4.6 2.3-5.2 1.5-12.6-.6-9.7 1.2-5.5 2-20.3-1.9-17.6 2.3-5.8 4.4-26.3-5.7-18.5-4.1.1-11.2 1.5-14.5 3.1 10.5 5.8-1.1 2.1-5.3 1.2-.6 5.4-4.8 3-10.1 3.1 8.5 1-4.1 8.6-9 5.7-6.3 3 5.4 10.5.1 12.8.7 3.5-9.7-1.3-8.8 6.8-6.1-2.6-.8 9.6 2.2 5.5 10.4 2.8 7.3 9.2 7.6 15.3-1.7 3.5-8.4-8.3-1.5-7.8-5.4-8.8-6-3.2-10.5.9-1 .3 11.5 5.8 3.6 8.6 6.9 1.1 7.1 7.1 8.5 11 4.2 4.3 3.3-4.8 8.3.4-3.2-4.6-16.7-13.1-5.8-10.4-.1-4.7-2-8.4 1.4-8.3 3.3-6-3.5 14.8 4 7.2 2.1-.9 2.6-6 6.3.5 5.4 5.3 1.9 9.1-5.7 4.3 1.4 4.6 10.2 6.3 8.5 13.5 1.8 6.3 4.2 4 6.4 3.6 1.7 6.2 2.6 1.6 2.7-1.3 7.7 1.6 5.9 6.2 8.3 9.4 5.3 2.4-7.6-16.2 1.5-5.6 9.6 8.6 3.6 12.2-5 10.9 5.4-.4 7.2 7.3 14 7.1 6.2 2.9 10.4 14.3-.3 9.6-3.7-3.3-16.8-7.5-6.1-1.1 9.9 4.6 17.8 7.3 27.3 13.1 6.8 4.9 9.8 10.5 12.4 11.6-5.7 2.7-17.3-2.2-8.7-3.7-5.4-1-11.4-3.7-6.3 3 4.4 3.6 15.5 3.3 17.5 3.7-1.7 3.7-4.6 4 .1 4.3-5.5 2.4 1.3 2.9 1.8 4.4zm-10.6-29.9c-3.2-3.3-4-9.5-.6-4.1 1.8.7 5.6 10.1.6 4.1zm34.5 21.9c2-.1.1 1.5 0 0zm-39.5-30c-.1-4.9 1.2 3.9 0 0zm-3.4-4.6c-4-7.6 5 2.2 0 0zm-41.6-28.6c2.3-.7 1.1 3.9 0 0zm33.1 17.9c1.4-5.4 1.7 4.5 0 0zm-23.4-16.3c-1.7-2.9 3.4 2.8 0 0zm20.1 6.5c-3.8-8.4 2.7-4.6.8 1.4l-.8-1.4zm-34.7-23.1c-1.7-2.8-4.5-10.9-3.6-13.3.8 4 8.6 17.3 3.8 5.5-5.3-9.9 6.3 3.2 7.5 5.7.6 2.5-3.2-.7-.7 5.1-4.6-6.6-2.7 3.6-7-3zm-10.7-7.4c.5-6.4 2.5 4.4 0 0zm4.9 1.7c2.3-4.8 3.9 6.8 0 0zm-11.6-8.9c-4-4-6.9-7.6.2-2.5 2.7.1-6-8.3.7-2.7 7 1.3 3.4 11.6-.9 5.2zm6.1-.2c2.3-2.3 1.2 2.3 0 0zm3.7 1.2c-3.5-6.6 4.3 2.8 0 0zm-7.4-7.1c-11.6-10.3 14.6 5.4 1.9 1.9l-1.9-1.9zm33.1 19.2c-5-3-1.3-21.1.4-8.7 4.9-1.6-.3 6.4 3.4 6.3-.6 5.1-2.2 6.9-3.8 2.4zm12.3 7.3c.5-5.5 1.1 3.7 0 0zm-2.1-2.1c.5-2.3 0 2.7 0 0zm-41.1-27.8c-7.4-10.2 21.6 10.4 4.8 2.6-1.8-.4-3.9-.6-4.8-2.6zm23.7 12.5c-.7-8.6 1.5 1.5 0 0zm17.9 11.5c1.4-4.9.1 3.3 0 0zm-40.4-27.9c4.4-.9 18.3 7.8 5.6 2.5-1.5-1.6-4.5-.9-5.6-2.5zm38 18.9c.5-8.8 2.6-5.3 0 1.3v-1.3zm-34.7-22c1.8-2.6-4.8-11.9.9-3.3 2.5 2 7.2 3.3 3 4.1 6.6 5.8-1.5 1.6-3.9-.8zM86 118.4c1.2-10 1.1 5.9 0 0zM49.4 90c1.4-.6.7 1.8 0 0zm8.6 5c2.2-4.6 4 5.2 0 0zm24.1 13.4c0-1.7.5 2.6 0 0zm-1.4-3c-3.3-8.3 3.1 4.3 0 0zm-2.1-5.5c-.5-3.4 2 4.3 0 0zm3.4-5.4c-2.3-4 2.9-17.8 3.5-9.3-2.4 6.7-.7 10.4 1 1.5 3.1-7-.7 13.9-4.5 7.8zM85.4 74c1-1.2.3 1.5 0 0zm-5.7 113c-1.4-1.1.2.8 0 0zm11.8 6c6.6 1.7 6.5-1 .6-1.8-3.2-3-13.3-6.1-4.3-.4.7 1.5 2.6 1.5 3.7 2.2zm-23.4-15.5c3.6 2.7 13.7 7.7 5.2 1 2.9-3.3-5.5-5.1-2.7-7.3-7-4.3-5.6-3.9-.6-3.8-8.5-3.8 1.2-3.5.8-5.4-3.3-.6-16.2-5.7-8.6.4-7.7-3.9-1.8 1.5-4.2.9-7.9-2.2 7.1 6-1.3 4 4.5 3.6 12.2 9.2 1.9 3.8-1.3 2 7.4 4.9 9.5 6.4zm12.4 7.1c15.1 4.9-7.4-5.9 0 0zm63.4 38.3c.2-2.9-2.1 2.6 0 0zm6.5 2.8c3.5-3.4.1 5.4 5.8-.8.1-4.4-.2-7-6.4-1.7-1.8 1-2.6 5 .6 2.5zM47 160.9c-1-4.2-7.5-4.2 0 0zm7 4.5c-2.6-4.3-9.2-3.9 0 0zm39.5 23.8c3.9 3.4 17.7 2.5 4.7.4-1.9-2.8-12.2-2.1-4.7-.4zm54.4 33.6c6-5-5.7 2.2 0 0zm12.4 8.4c0-1.6-2.6.7 0 0zm0-2.2c6.6-7-6.4.4 0 0zM29.9 146.6c-5.6-8-3.5-11.6-8.9-18.1-1-5-9.3-16.3-4.3-4.3 4.6 6.9 6 17.8 13.2 22.4zm128.3 80.2c12.2-7.8-4.9-3.4 0 0zm9.3 3.6c6.1-5.2-3.8-1.1 0 0zM45 152c1.7-2.6-4.5-.3 0 0zm120.6 75.9c5.9-3.8-1.4-3.2-1.1.3l1.1-.3zm-79.7-50.1c-.2-2.6-3.1.2 0 0zm4.9 2.8c-1.6-3.1-2.4.5 0 0zm84.2 49.9c7.5-5.4-4.6-1-1.6 1l1.6-1zm-2.9-1.4c6.1-5.1-6.5 2.3 0 0zm14.7 9.8c4.1-2.8-5-.9 0 0zM48.7 150.2c5.5 1.2 22 13.6 12.3.9-5-1.5-2-13.7-7.1-11.5 3.4 5.7 2.8 8.1-4.4 4.5-9-4.4-5.1 2.2-3.3 4-2.3.5 3.2 2 2.5 2.1zm-25.1-19.9c1-4.1-9.1-22.4-4.8-9.2 1.6 2.8 1.4 8.1 4.8 9.2zm46.1 28.4c-2.8-2.3-.1-.3 0 0zm7 1.7c0-4.4-7.7-1.8 0 0zm60.6 38.1c-1.1-2.9-4.5-.1 0 0zm2.9 2.1c-.4-1.6-1.6.4 0 0zm24.1 15.1c2.3-1.7-2.9-.2 0 0zM36.2 133.5c6.6-2.5-7.1-1.8 0 0zm95.8 60.3c-.1-4.2-4.2 1.1 0 0zm-98.5-66.3c4.3-1.5-3.9-1 0 0zm12.4 5.9c-.1-1.4-1.3.6 0 0zm150.3 92c5.5-1.1 17.9 2.8 19.9-1.4-6.6-.2-22.9-4.7-23.7 1.1l1.5.2 2.3.1zm-146.4-91c.1-4.3-3.4-.1 0 0zM17.4 112c-1.5-8.3-5.6-1.3 0 0zm7.7 1.9c.1-2.6-7.1-2.4 0 0zm4.4 2.2c-1.3-1-1 1.3 0 0zm27.8 17.8c1.3-1.2-3.1-.9 0 0zm-30.7-22.7c-.8-6.2-9-.9 0 0zm-15.9-10.3c-.2-2.8-1.5 1.1 0 0zm2.4-1.7c-.4-3.4-2 .4 0 0zm13 7.7c5.5-2.2-10-4.5-1.1-.4l1.1.4zm174.2 107.5c3.6-3.3-4.4-1 0 0zm21.1 10.9c1.4-4.2-3.6.5 0 0zm-194-125.2c.6-4-4.3.8 0 0zM8.9 87.7c-1-5.7-.8-15.7 8.7-12.3-12.7 2.5 8.8 15.8 6.1 5.3 5.3.3 10.4-3.2 7.6 2 10.5-1.2 17.8-10.3 28-9 7.9-1 16.6-1.8 25.1-5 7-.5 13.8-8 9.9-12.5-9.6-.8-19.6.4-30.2 2.5-11.7 2.4-22.4 7.1-34.2 9-11.5 1.5 2.3 4.3-1 4.9-6 2.1 7.2 3.5-.8 5.7-4.9-.9-10-2.6-7.9-7.8-11 1.4-20.7 6-12 17.2h.7zm26.6-13.5c2.6-9.5 13.9 7.8 4.2 1.3-1.1-.9-3-1.6-4.2-1.3zm.5-4.6c3.8-2.8 2 1.5 0 0zm4.8.1c.3-4.4 10.9 2.3 1.7 1.6l-1.7-1.6zm6.5-2.7c2.3-2.7.6 2.5 0 0zm1.6-1.1c3.9-4.7 22.3-3 8.9-.5-3.6-2.6-6.4 1.7-8.9.5zm24-3.7c-.6-12.9 12 4.6 0 0zm6.9 0c2.5-6.5 9.7-2.6 1.2-1.3.1.7-.3 3.4-1.2 1.3zm-55 34.6c7.4-4.6-7.9-4 0 0zm5.5 1.5c2.6-2.8-5.7-1.1 0 0zM14.1 86.8c4.2-3.3-5.1-1.2 0 0zm219.7 137.3c.1-3.8-3.2 1.7 0 0zm-22.3-15.3c.6-4.3-2.9.4 0 0zm28.5 16.7c5.9 0 18-1.8 5.1-1.8-2.1.3-11.9.2-5.1 1.8zM35.1 95.6c4.8-.3 7.5-5.3-.9-5-13.1-1.4 11.6 4.5-1.7 2.8-1.8 1.2 2.5 2.5 2.6 2.2zm4.2 2.2c-.5-3.1-1.4 1.6 0 0zm5.1-13.4c2.1-2.6-2.9-.7 0 0zm-16-26.7c8.6-2.9 20.3-6.2 24.4 1.4-4.1-5-1.7-9.8 2.2-2.6 5.5 7.3 8.3-3.3 4.7-5.8 4.1 5.1 8.7 7.5 2.7.3 6.5-7.8-13 1-17.5.9-2.1 1-22.1 5.2-16.5 5.8zm5-9.7c4.9-3.7 16.9 2.2 9.2-3.7-.7-.6-16.9 4.5-9.2 3.7zm17.9.8c5.7.1-2.5-7.7 4.4-4.1-1.1-3.7-8-4.3-11.3-5.8-2 3.3 3.8 9.9 6.9 9.9zM36.5 32.6c2-2.7-3.4 1.4 0 0zm7.3 1.7c9.2-1.2-2.4-4-1.9-.1l1.9.1zM30.2 23.7c-6.5-8.5 12.2 1.4 5.6-7.5-5.5-4.4-10.9 5-5.6 7.5zm83.5 44.9c3-5.3-12.3-7.1-2-1.9.9.3.7 2.3 2 1.9z"/></svg>