<svg xmlns="http://www.w3.org/2000/svg" viewBox="0 0 256 256" style="enable-background:new 0 0 256 256" xml:space="preserve"><path d="M251.2 116.6 139.4 4.8c-6.4-6.4-16.9-6.4-23.3 0L92.9 28l29.4 29.4c6.8-2.3 14.7-.8 20.1 4.7 5.5 5.5 7 13.4 4.7 20.3l28.4 28.4c6.9-2.4 14.8-.8 20.3 4.7 7.7 7.7 7.7 20.1 0 27.7-7.7 7.7-20.1 7.7-27.8 0-5.8-5.8-7.2-14.2-4.3-21.3l-26.5-26.5V165c1.9.9 3.6 2.2 5.2 3.7 7.7 7.7 7.7 20.1 0 27.7-7.7 7.7-20.1 7.7-27.7 0-7.7-7.7-7.7-20.1 0-27.7 1.9-1.9 4.1-3.3 6.4-4.3V94.2c-2.3-1-4.5-2.4-6.4-4.3-5.8-5.8-7.2-14.3-4.2-21.4l-29-29-76.7 76.6c-6.4 6.4-6.4 16.9 0 23.3l111.8 111.8c6.4 6.4 16.9 6.4 23.3 0l111.2-111.3c6.5-6.4 6.5-16.9.1-23.3z" style="fill:#f05133"/></svg>