<svg xmlns="http://www.w3.org/2000/svg" xml:space="preserve" style="enable-background:new 0 0 256 256" viewBox="0 0 256 256"><path d="M35.6 230.4 15 0h226l-20.6 230.4-92.5 25.6-92.3-25.6z" style="fill:#e44e28"/><path d="m128 236.4 74.8-20.7 17.6-196.9H128v217.6z" style="fill:#ec662b"/><path d="M128 104.3H90.6L88 75.4h40V47.1H57.1l.6 7.6 7 77.9H128v-28.3zm0 73.4-31.6-8.5-2-22.5H65.9l4 44.4 58 16h.1v-29.4z" style="fill:#ebebeb"/><path d="M127.9 104.3v28.3h34.8l-3.2 36.6-31.6 8.5v29.4l58-16 .4-4.8 6.7-74.4.7-7.6h-65.8zm0-57.2v28.3h68.3l.6-6.4 1.3-14.3.7-7.6h-70.9z" style="fill:#fff"/></svg>