<svg xmlns="http://www.w3.org/2000/svg" viewBox="0 0 256 256" style="enable-background:new 0 0 256 256" xml:space="preserve"><path d="M128 249.5c67.1 0 121.5-54.4 121.5-121.5S195.1 6.5 128 6.5 6.5 60.9 6.5 128 60.9 249.5 128 249.5z" style="fill:#fff"/><path d="M128 0C57.3 0 0 57.3 0 128s57.3 128 128 128 128-57.3 128-128S198.7 0 128 0zm0 13c63.5 0 115 51.5 115 115s-51.5 115-115 115S13 191.5 13 128 64.5 13 128 13z" style="fill:#4000bf"/><linearGradient id="a" gradientUnits="userSpaceOnUse" x1="129.4" y1="729.1" x2="129.4" y2="546.9" gradientTransform="translate(0 -510)"><stop offset="0" style="stop-color:#7400e1"/><stop offset="1" style="stop-color:#4000bf"/></linearGradient><path d="M129.4 36.9c50.3 0 91.1 40.8 91.1 91.1s-40.8 91.1-91.1 91.1-91.1-40.8-91.1-91.1c0-12.3 2.4-24 6.9-34.7 6.4 8.8 16.8 14.5 28.6 14.5 19.6 0 35.4-15.9 35.4-35.4 0-11.7-5.7-22.1-14.5-28.6 10.7-4.5 22.4-6.9 34.7-6.9z" style="fill-rule:evenodd;clip-rule:evenodd;fill:url(#a)"/></svg>