<svg xmlns="http://www.w3.org/2000/svg" xml:space="preserve" style="enable-background:new 0 0 256 256" viewBox="0 0 256 256"><style>.st0{fill:#5382a1}.st1{fill:#f8981d}</style><path d="M94.4 198s-9.8 5.7 7 7.6c20.3 2.3 30.7 2 53.1-2.2 0 0 5.9 3.7 14.1 6.9C118.3 231.7 55 209 94.4 198m-6.2-28s-11 8.1 5.8 9.9c21.7 2.2 38.8 2.4 68.5-3.3 0 0 4.1 4.2 10.5 6.4-60.6 17.7-128.2 1.3-84.8-13" class="st0"/><path d="M139.9 122.4c12.4 14.2-3.2 27-3.2 27s31.4-16.2 17-36.5c-13.5-18.9-23.8-28.3 32.1-60.7-.1.1-87.8 22-45.9 70.2" class="st1"/><path d="M206.3 218.7s7.2 6-8 10.6c-29 8.8-120.5 11.4-146 .3-9.1-4 8-9.5 13.4-10.6 5.6-1.2 8.8-1 8.8-1-10.2-7.2-65.7 14.1-28.2 20.1 102.3 16.6 186.5-7.4 160-19.4M99.1 140.9S52.5 152 82.6 156c12.7 1.7 38 1.3 61.6-.7 19.3-1.6 38.6-5.1 38.6-5.1s-6.8 2.9-11.7 6.3c-47.3 12.4-138.7 6.6-112.4-6.1 22.3-10.7 40.4-9.5 40.4-9.5m83.5 46.7c48.1-25 25.8-48.9 10.3-45.7-3.8.8-5.5 1.5-5.5 1.5s1.4-2.2 4.1-3.2c30.7-10.8 54.3 31.8-9.9 48.7.1-.1.8-.7 1-1.3" class="st0"/><path d="M153.6 0s26.6 26.6-25.3 67.5c-41.6 32.8-9.5 51.5 0 72.9-24.3-21.9-42.1-41.2-30.2-59.1 17.7-26.3 66.3-39 55.5-81.3" class="st1"/><path d="M103.8 255.2c46.1 3 117-1.6 118.7-23.5 0 0-3.2 8.3-38.1 14.8-39.4 7.4-88 6.5-116.8 1.8 0 .1 5.9 5 36.2 6.9" class="st0"/></svg>