<svg xmlns="http://www.w3.org/2000/svg" xml:space="preserve" style="enable-background:new 0 0 256 256" viewBox="0 0 256 256"><path d="M241 0H15l21.2 229.9L128 256l91.8-26.1L241 0z" style="fill:#e8a50a"/><path d="M128 18.7v217.8l74.4-21.1 18.1-196.7H128z" style="fill:#f3c100"/><path d="M187.2 46.9H72.8l-8 86.1.2-.5h97.2l-3.2 36.4-31 9-31.5-9.1-1.9-22.1H66.1l4.1 44.1 57.8 16.4 57.8-16.4 8-86.4H90.7L92 75.5h71.6l1 16.5h28.8l-6.2-45.1z" style="fill:#fff"/><path d="M94.6 146.7H66.1l4.1 44.1 57.8 16.4v-29.3l-31.5-9.1-1.9-22.1zM128 75.5V46.9H72.8l-8 86.1.2-.5h63v-28.1H94.7L96 75.5h32z" style="fill:#f1f1f2"/></svg>