<svg xmlns="http://www.w3.org/2000/svg" viewBox="0 0 256 256" style="enable-background:new 0 0 256 256" xml:space="preserve"><path d="M255.9 57.9c.1.3.1.7.1 1v54.9c0 1.4-.8 2.8-2.1 3.5l-47.5 26.6v52.6c0 1.4-.8 2.8-2.1 3.5l-99.1 55.4c-.2.1-.5.2-.7.3-.1 0-.2.1-.3.1-.7.2-1.4.2-2.1 0-.1 0-.2-.1-.3-.1-.2-.1-.5-.2-.7-.3L2.1 200c-1.3-.7-2.1-2-2.1-3.5V31.7c0-.4.1-.7.1-1.1 0-.1.1-.2.1-.3.1-.2.1-.4.3-.6.1-.1.2-.2.3-.4.2-.1.3-.3.4-.4s.3-.2.4-.3c.1-.1.3-.3.5-.3L51.6.5c1.3-.7 2.8-.7 4.1 0l49.5 27.7c.2.1.3.2.5.3.1.1.3.2.4.3.1.1.2.3.4.5.1.1.2.2.3.4l.3.6c0 .1.1.2.1.3.1.3.1.7.1 1v103l41.3-23.1V59c0-.4.1-.7.1-1 0-.1.1-.2.1-.3l.3-.6c.1-.1.2-.2.3-.4s.2-.3.4-.5c.1-.1.3-.2.4-.3.2-.1.3-.3.5-.3l49.6-27.7c1.3-.7 2.8-.7 4.1 0l49.5 27.7c.2.1.3.2.5.3.1.1.3.2.4.3.1.1.2.3.4.5.1.1.2.2.3.4l.3.6s0 .1.1.2zm-8.2 53.7V65.9l-17.3 9.7-24 13.4v45.7l41.3-23.1zm-49.5 82.7v-45.7l-23.6 13.1-67.3 37.3v46.2c.1-.1 90.9-50.9 90.9-50.9zM8.3 38.7v155.6L99.1 245v-46.1l-47.5-26.1c-.2-.1-.3-.2-.4-.3-.1-.1-.3-.2-.4-.3-.1-.1-.2-.3-.3-.4-.1-.1-.2-.3-.3-.4-.1-.2-.1-.3-.2-.5s-.2-.3-.2-.5c-.1-.2-.1-.4-.1-.6 0-.2-.1-.3-.1-.5V61.8l-24-13.5-17.3-9.6zM53.7 8.6 12.4 31.7l41.3 23.1L95 31.7 53.7 8.6zm21.4 144.1L99 139.3V38.7l-17.3 9.7-24 13.4v100.6c.1 0 17.4-9.7 17.4-9.7zM202.3 35.9 161 59l41.3 23 41.3-23-41.3-23.1zM198.2 89l-24-13.4-17.3-9.7v45.7l23.9 13.4 17.3 9.7c.1 0 .1-45.7.1-45.7zm-95 103 60.5-33.6 30.3-16.8-41.2-23.1-47.5 26.6L62 169.3l41.2 22.7z" style="fill-rule:evenodd;clip-rule:evenodd;fill:#ff2d20"/></svg>