<svg xmlns="http://www.w3.org/2000/svg" xml:space="preserve" style="enable-background:new 0 0 256 256" viewBox="0 0 256 256"><style>.st0{fill:navy}.st1{fill:#fff}</style><path d="M225.9 128c0-54-43.9-97.9-97.9-97.9S30.1 74 30.1 128 74 225.9 128 225.9s97.9-43.8 97.9-97.9" class="st0"/><path d="M197.2 87.5c0-15.8-12.8-28.7-28.7-28.7s-28.7 12.8-28.7 28.7 12.8 28.7 28.7 28.7 28.7-12.9 28.7-28.7" class="st1"/><path d="M254.6 30.1c0-15.8-12.8-28.7-28.7-28.7s-28.7 12.8-28.7 28.7 12.8 28.7 28.7 28.7 28.7-12.9 28.7-28.7" class="st0"/><path d="M69.7 169.7h31.7v7.2H61.5v-64.2h8.2v57zm69.7 7.3v-6.4c-4.3 6.1-8.6 8.5-15.4 8.5-9 0-14.7-4.9-14.7-12.6v-35.6h7.3v32.7c0 5.5 3.7 9.1 9.5 9.1 7.7 0 12.6-6.2 12.6-15.6v-26.2h7.3V177h-6.6zm60.2 1.2c-2.4.6-3.5.8-5 .8-4.8 0-7.1-2.1-7.6-6.8-5.2 4.8-9.9 6.8-15.7 6.8-9.3 0-15.1-5.3-15.1-13.7 0-6 2.7-10.1 8.1-12.3 2.8-1.1 4.4-1.5 14.8-2.8 5.8-.7 7.7-2 7.7-5.1v-1.9c0-4.4-3.7-6.9-10.3-6.9-6.9 0-10.2 2.5-10.8 8.2h-7.4c.2-4.6 1.1-7.2 3.2-9.6 3.1-3.4 8.6-5.4 15.3-5.4 11.4 0 17.4 4.4 17.4 12.6v27.2c0 2.3 1.4 3.6 4 3.6.4 0 .8 0 1.6-.2l-.2 5.5zm-12.8-24.1c-2.5 1.1-4.1 1.5-11.8 2.5-7.8 1.1-11.1 3.6-11.1 8.5 0 4.7 3.4 7.4 9.1 7.4 4.3 0 7.9-1.4 10.9-4.1 2.2-2 2.9-3.5 2.9-6v-8.3z" class="st1"/><path d="m132.5 256-.1-2.9c3.6-.1 7.3-.4 10.9-.9l.4 2.9c-3.7.5-7.4.8-11.2.9zm-11.1-.1c-3.7-.2-7.5-.5-11.1-1.1l.4-2.9c3.6.5 7.2.8 10.9 1l-.2 3zm33.3-2.6-.6-2.9c3.5-.8 7.1-1.7 10.6-2.7l.9 2.8c-3.6 1.1-7.3 2-10.9 2.8zm-55.4-.5c-3.6-.8-7.2-1.8-10.8-3l.9-2.8c3.4 1.1 7 2.1 10.5 2.9l-.6 2.9zm76.7-6-1.1-2.7c3.4-1.4 6.7-2.9 9.9-4.5l1.3 2.6c-3.2 1.6-6.6 3.2-10.1 4.6zm-98-.8c-3.4-1.4-6.8-3.1-10.1-4.8l1.4-2.6c3.2 1.7 6.5 3.3 9.9 4.7L78 246zm117.9-9.4-1.6-2.5c3.1-1.9 6.1-4 9-6.2l1.8 2.3c-3 2.3-6.1 4.4-9.2 6.4zm-137.6-1.1c-3.1-2-6.2-4.2-9.1-6.5l1.8-2.3c2.9 2.2 5.8 4.4 8.9 6.3l-1.6 2.5zm155.4-12.3-2-2.2c2.7-2.4 5.3-5 7.8-7.7l2.1 2c-2.5 2.7-5.1 5.4-7.9 7.9zm-173-1.5c-2.7-2.5-5.4-5.2-7.8-8l2.2-2c2.4 2.7 5 5.3 7.7 7.8l-2.1 2.2zm188.2-14.9-2.3-1.8c2.2-2.9 4.4-5.8 6.3-8.9l2.5 1.6c-2 3.1-4.2 6.2-6.5 9.1zm-203.1-1.6c-2.2-3-4.4-6.1-6.3-9.2l2.5-1.6c1.9 3.1 4 6.1 6.2 9l-2.4 1.8zm215.3-17.1-2.6-1.4c1.7-3.2 3.3-6.5 4.7-9.9l2.7 1.1c-1.4 3.5-3 6.9-4.8 10.2zm-227.2-1.8c-1.7-3.3-3.3-6.7-4.6-10.2L12 175c1.4 3.4 2.9 6.7 4.5 9.9l-2.6 1.4zm235.9-18.7-2.8-.9c1.1-3.4 2.1-7 2.9-10.5l2.9.7c-.8 3.5-1.8 7.1-3 10.7zm-244.3-2c-1.1-3.5-2-7.2-2.8-10.8l2.9-.6c.8 3.5 1.7 7.1 2.7 10.6l-2.8.8zm249.3-19.8-2.9-.4c.5-3.6.8-7.2 1-10.9l2.9.2c-.1 3.7-.4 7.4-1 11.1zM.9 143.7c-.5-3.7-.7-7.4-.9-11.1l2.9-.1c.1 3.6.4 7.3.9 10.9l-2.9.3zm252.2-20.1c-.1-3.6-.4-7.3-.9-10.9l2.9-.4c.5 3.7.7 7.4.9 11.1l-2.9.2zM3 121.6l-2.9-.1c.2-3.7.5-7.5 1-11.1l2.9.4c-.5 3.5-.8 7.2-1 10.8zM250.4 102c-.8-3.5-1.7-7.1-2.7-10.6l2.8-.9c1.1 3.5 2 7.2 2.8 10.8l-2.9.7zM6 100l-2.9-.7c.8-3.6 1.8-7.2 3-10.8l2.8.9C7.8 92.9 6.8 96.5 6 100zm238-18.9c-1.4-3.4-2.9-6.7-4.5-9.9l2.6-1.3c1.7 3.3 3.2 6.7 4.6 10.2l-2.7 1zM12.7 79.2 10 78.1c1.4-3.4 3.1-6.8 4.8-10.1l2.6 1.4c-1.7 3.2-3.3 6.5-4.7 9.8zM23 60l-2.5-1.6c2-3.1 4.2-6.2 6.5-9.1l2.3 1.8c-2.2 2.8-4.4 5.8-6.3 8.9zm13.4-17.2-2.2-2c2.5-2.7 5.2-5.4 8-7.8l2 2.2c-2.7 2.4-5.4 4.9-7.8 7.6zm16.2-14.6-1.8-2.3c3-2.2 6.1-4.4 9.2-6.3l1.6 2.5c-3.1 1.8-6.2 3.9-9 6.1zm134-10.8c-3.2-1.7-6.5-3.3-9.9-4.7l1.1-2.7c3.4 1.4 6.8 3.1 10.1 4.8l-1.3 2.6zM71 16.6 69.7 14c3.3-1.7 6.7-3.3 10.2-4.7L81 12c-3.4 1.4-6.8 2.9-10 4.6zm95.5-7.7c-3.5-1.1-7-2.1-10.5-2.9l.7-2.9c3.6.8 7.2 1.8 10.8 3l-1 2.8zm-75.3-.5-.9-2.8c3.5-1.1 7.2-2 10.8-2.8l.6 2.9c-3.5.7-7 1.6-10.5 2.7zm54-4.4c-3.6-.5-7.2-.8-10.9-1l.1-2.9c3.7.2 7.4.5 11.1 1.1l-.3 2.8zm-32.7-.2-.4-2.9c3.7-.5 7.4-.8 11.1-.9l.1 2.9c-3.5.2-7.2.5-10.8.9z" style="fill:gray"/></svg>