<svg xmlns="http://www.w3.org/2000/svg" xml:space="preserve" style="enable-background:new 0 0 256 256" viewBox="0 0 256 256"><path d="M254.9 45.8c-.7-.6-1.6-.9-2.5-.8-2.5 0-5.7 1.7-7.4 2.6l-.7.3c-2.9 1.4-6 2.2-9.2 2.3-3.3.1-6.1.3-9.8.7-21.8 2.2-31.6 18.9-40.9 35.1-5.1 8.8-10.4 17.9-17.6 24.8-1.5 1.4-3.1 2.8-4.8 4-7.5 5.5-16.9 9.5-24.2 12.3-7 2.7-14.7 5.1-22.1 7.4-6.8 2.1-13.2 4.1-19.1 6.3-2.7 1-4.9 1.7-6.9 2.4-5.4 1.7-9.3 3.1-14.9 7-2.2 1.5-4.4 3.1-5.9 4.3-4.5 3.6-8.5 7.8-11.8 12.4-2.9 4.3-6.2 8.3-9.9 11.9-1.2 1.2-3.3 1.7-6.5 1.7-3.7 0-8.2-.8-13-1.6-4.9-.9-10-1.7-14.4-1.7-3.5 0-6.3.6-8.3 1.7 0 0-3.4 2-4.9 4.5l1.4.6c2.2 1.2 4.2 2.6 6 4.3 1.9 1.7 4 3.2 6.3 4.5.7.3 1.4.7 1.9 1.2-.6.9-1.5 2-2.4 3.2-5 6.6-8 10.7-6.3 13 .8.4 1.7.6 2.6.6 11 0 16.9-2.8 24.3-6.4 2.2-1 4.4-2.1 7-3.2 4.4-1.9 9.1-4.9 14-8.1 6.5-4.2 13.3-8.6 20-10.7 5.4-1.7 11.1-2.4 16.8-2.3 7 0 14.3.9 21.4 1.8 5.3.7 10.8 1.4 16.1 1.7 2.1.1 4 .2 5.9.2 2.5 0 5-.1 7.5-.4l.6-.2c3.8-2.3 5.5-7.3 7.2-12 1.1-3.1 2-5.8 3.5-7.6.1-.1.2-.2.3-.2.1-.1.3 0 .4.1v.1c-.9 18.7-8.4 30.7-16.1 41.2l-5.1 5.5s7.1 0 11.2-1.6c14.8-4.4 26-14.2 34.2-29.8 2-4 3.8-8.1 5.4-12.3.1-.3 1.4-1 1.3.8 0 .5-.1 1.1-.1 1.7 0 .4 0 .7-.1 1.1-.2 2.6-.8 8.1-.8 8.1l4.6-2.4c11-7 19.6-21 26-42.9 2.7-9.1 4.7-18.1 6.4-26.1 2.1-9.6 3.9-17.8 5.9-21 3.2-5 8.1-8.4 12.9-11.6.6-.4 1.3-.9 1.9-1.3 6-4.2 11.9-9 13.2-18 1.2-6.7.4-8.4-.5-9.2z" style="fill:#003545"/></svg>