<svg xmlns="http://www.w3.org/2000/svg" viewBox="0 0 256 256" style="enable-background:new 0 0 256 256" xml:space="preserve"><path d="M37 201.4c-3.1 2.6-7.3 3.3-11 1.7L6.6 195c-4-1.7-6.5-5.5-6.6-9.8V70.8c0-4.3 2.6-8.2 6.6-9.8L26 53c3.7-1.6 8-.9 11 1.7l4.3 3.6c-2.6-1.9-6.3-1.3-8.2 1.4-.7 1-1.1 2.2-1.1 3.5v129.7c0 3.3 2.6 5.9 5.9 5.9 1.2 0 2.4-.4 3.5-1.1l-4.4 3.7z" style="fill:#52218a"/><path d="M6.6 195c-4-1.7-6.5-5.5-6.6-9.8v-.9c0 3.4 2.8 6.2 6.2 6.1 1.7 0 3.3-.7 4.4-2L176 4.7c4.8-4.8 12.1-6 18.2-3.1l52.7 25.5c5.5 2.7 9.1 8.3 9.1 14.5v.6c0-5.6-4.5-10.2-10.1-10.2-2.3 0-4.6.8-6.4 2.3L41.3 197.7l-4.3 3.8c-3.1 2.6-7.3 3.3-11 1.7L6.6 195z" style="fill:#6c33af"/><path d="M6.6 61c-4 1.7-6.5 5.5-6.6 9.8v.9c0-3.4 2.8-6.2 6.2-6.1 1.7 0 3.3.7 4.4 2L176 251.3c4.8 4.8 12.1 6 18.2 3.1l52.7-25.5c5.5-2.7 9.1-8.3 9.1-14.5v-.6c0 5.6-4.5 10.2-10.1 10.2-2.3 0-4.6-.8-6.4-2.3L41.3 58.3 37 54.6c-3.1-2.6-7.4-3.2-11-1.6L6.6 61z" style="fill:#854cc7"/><path d="M194.2 254.4c-6.1 2.9-13.4 1.7-18.2-3.1 3.7 3.7 9.6 3.6 13.3 0 1.7-1.8 2.7-4.1 2.7-6.6V11.4c0-5.2-4.2-9.4-9.4-9.5-2.5 0-4.9 1-6.6 2.7 4.8-4.8 12.1-6 18.2-3.1L246.9 27c5.5 2.7 9.1 8.3 9.1 14.5v172.8c0 6.2-3.5 11.8-9.1 14.5l-52.7 25.6z" style="fill:#b179f1"/><linearGradient id="a" gradientUnits="userSpaceOnUse" x1="128" y1="1180.251" x2="128" y2="1436.25" gradientTransform="translate(0 -1180.25)"><stop offset="0" style="stop-color:#fff"/><stop offset="1" style="stop-color:#fff;stop-opacity:0"/></linearGradient><path d="M183.7 255.6c3.5.8 7.2.4 10.5-1.2l52.7-25.5c5.5-2.7 9.1-8.3 9.1-14.5V41.6c0-6.2-3.5-11.8-9.1-14.5L194.2 1.6c-3.7-1.8-8-2.1-11.9-.8-2.4.8-4.5 2.1-6.2 3.9L91 99.2 41.3 58.3 37 54.6c-2.7-2.3-6.2-3.1-9.6-2.2-.5.1-1 .3-1.4.5L6.6 61C2.9 62.5.4 66 0 70v116c.3 4 2.9 7.5 6.6 9l19.4 8c.5.2.9.4 1.4.5 3.4.9 7 .1 9.6-2.2l4.3-3.6L91 156.8l85 94.5c2.1 2.1 4.8 3.6 7.7 4.3zM192 73.5 125.9 128l66.1 54.5v-109zM32 91.2 65.1 128 32 164.8V91.2z" style="opacity:.25;fill-rule:evenodd;clip-rule:evenodd;fill:url(#a);enable-background:new"/></svg>