<svg xmlns="http://www.w3.org/2000/svg" viewBox="0 0 256 256" style="enable-background:new 0 0 256 256" xml:space="preserve"><path d="M235.8 198c-14-.4-24.6.9-33.8 4.9-2.6 1.1-6.7 1.1-7.1 4.5 1.4 1.5 1.6 3.8 2.8 5.7 2.2 3.6 5.9 8.4 9.1 10.9 3.6 2.8 7.3 5.7 11.1 8.1 6.8 4.2 14.5 6.7 21 10.9 3.9 2.5 7.7 5.7 11.5 8.5 1.9 1.4 3.1 3.6 5.6 4.5v-.4c-1.3-1.7-1.6-3.9-2.8-5.7-1.7-1.8-3.4-3.5-5.2-5.3-5-6.8-11.5-12.8-18.3-17.8-5.4-4-17.6-9.3-19.9-15.8l-.4-.4c3.9-.4 8.4-1.9 11.9-2.8 6-1.6 11.3-1.2 17.5-2.8 2.8-.8 5.6-1.6 8.3-2.4V201c-3.1-3.3-5.3-7.6-8.7-10.5-8.9-7.7-18.6-15.4-28.6-21.9-5.5-3.6-12.4-5.9-18.3-8.9-2-1-5.4-1.5-6.8-3.2-3.1-4-4.8-9.1-7.1-13.8-5-9.8-9.9-20.5-14.3-30.8-3-7-5-13.9-8.7-20.2-18-30.2-37.4-48.5-67.5-66.4-6.3-3.8-14-5.3-22.1-7.3-4.4-.3-8.7-.5-13.1-.8-2.7-1.1-5.4-4.5-7.9-6.1C34 4.7 8.5-9.3 1.1 9.1c-4.7 11.6 7 22.9 11.1 28.7 2.9 4.1 6.7 8.7 8.7 13.4 1.4 3 1.6 6.1 2.8 9.3 2.9 7.9 5.4 16.6 9.1 23.9 1.9 3.7 4 7.6 6.4 10.9 1.5 2 4 2.9 4.4 6.1-2.5 3.5-2.6 8.9-4 13.4-6.2 19.9-3.9 44.7 5.2 59.5 2.8 4.5 9.3 14.2 18.3 10.5 7.8-3.3 6.1-13.4 8.3-22.3.5-2 .2-3.5 1.2-4.9v.4c2.4 4.9 4.8 9.7 7.1 14.6 5.3 8.7 14.7 17.8 22.6 23.9 4.1 3.2 6.6 6.5 12.7 10.5 0 0-9.1-8.1-13.5-14.5-7.2-10-13.6-21-19.5-32.4-2.8-5.4-5.2-11.5-7.5-17-.9-2.1-.9-5.4-2.8-6.5-2.6 4.1-6.4 7.3-8.3 12.1-3.2 7.7-3.6 17-4.8 26.7-.7.3-.4.1-.8.4-5.5-1.4-7.5-7.2-9.5-12.1-5.2-12.6-6.2-32.9-1.6-47.4 1.2-3.7 6.5-15.6 4.4-19-1-3.5-4.4-5.5-6.4-8.1-2.4-3.3-4.7-7.6-6.4-11.3-4.3-9.8-6.2-20.8-10.7-30.8-2.1-4.7-5.8-9.5-8.7-13.8-3.3-4.7-7-8.1-9.5-13.8-.9-2-2.1-5.2-.8-7.3.4-1.4 1-2 2.4-2.4 2.3-1.8 8.7.6 11.1 1.6 6.4 2.7 11.7 5.3 17.1 8.9 2.6 1.8 5.2 5.1 8.3 6.1h3.6c5.6 1.3 11.9.4 17.1 2 9.2 2.9 17.5 7.3 25 12.1 23 14.8 41.7 35.7 54.5 60.7 2.1 4 3 7.9 4.8 12.1 3.7 8.6 8.3 17.5 11.9 25.9 3.6 8.4 7.2 16.9 12.3 23.9 2.7 3.7 13.1 5.6 17.9 7.7 3.3 1.4 8.8 2.9 11.9 4.9 6 3.7 11.8 8.1 17.5 12.1 2.7 2.1 11.3 6.5 11.8 10.2z" style="fill:#00618a"/><path d="M58.4 43.7c-2.7-.5-5 .3-7.1.8 0 0 3.7 4.1 5.7 7.3s2.5 5.1 4.3 8.9c0 0 4.4-5.3 3.6-8.2-.9-2.9-3.8-8.3-6.5-8.8z" style="fill-rule:evenodd;clip-rule:evenodd;fill:#00618a"/></svg>