<svg xmlns="http://www.w3.org/2000/svg" xml:space="preserve" viewBox="0 0 256 256"><clipPath id="b"><path d="M122 1.6 22 59.5c-3.7 2.2-6 6.2-6 10.5v115.9c0 4.3 2.3 8.3 6 10.5l99.9 58c3.7 2.2 8.3 2.2 12.1 0l99.9-58c3.7-2.2 6-6.2 6-10.5V70c0-4.3-2.3-8.3-6-10.5L134 1.6C132.1.5 130 0 128 0c-2.1 0-4.2.5-6 1.6"/></clipPath><linearGradient id="a" x1="-1605.833" x2="-1602.022" y1="552.494" y2="552.494" gradientTransform="scale(-86.48 86.48) rotate(63.886 -360.825 1562.057)" gradientUnits="userSpaceOnUse"><stop offset=".3" stop-color="#3e863d"/><stop offset=".5" stop-color="#55934f"/><stop offset=".8" stop-color="#5aad45"/></linearGradient><path fill="url(#a)" d="M341 49.7 59.4-88.9-85 206.8l281.6 138.6L341 49.7z" clip-path="url(#b)"/><clipPath id="d"><path d="M18.5 193.3c1 1.2 2.2 2.3 3.6 3.1l85.7 49.7 14.3 8.2c2.1 1.2 4.6 1.8 7 1.6.8-.1 1.6-.2 2.4-.4L236.8 61.8c-.8-.9-1.8-1.6-2.8-2.2l-65.4-37.9-34.6-20c-1-.6-2-1-3.1-1.3L18.5 193.3z"/></clipPath><linearGradient id="c" x1="-1599.33" x2="-1596.86" y1="520.739" y2="520.739" gradientTransform="scale(132.798 -132.798) rotate(36.46 -6.578 2687.38)" gradientUnits="userSpaceOnUse"><stop offset=".57" stop-color="#3e863d"/><stop offset=".72" stop-color="#619857"/><stop offset="1" stop-color="#76ac64"/></linearGradient><path fill="url(#c)" d="M-103.3 90.7 95.6 360.9l263-195.1-198.9-270.2-263 195.1z" clip-path="url(#d)"/><clipPath id="f"><path d="M126.8.1c-1.7.2-3.3.7-4.8 1.6L22.3 59.4l107.5 196.5c1.5-.2 3-.7 4.3-1.5l99.9-58c3.1-1.8 5.2-4.8 5.8-8.3L130.3.3c-.8-.2-1.6-.2-2.4-.2-.4-.1-.7-.1-1.1 0"/></clipPath><linearGradient id="e" x1="-1588.745" x2="-1586.512" y1="524.564" y2="524.564" gradientTransform="matrix(97.417 0 0 -97.417 154793.016 51229.371)" gradientUnits="userSpaceOnUse"><stop offset=".16" stop-color="#6bbf47"/><stop offset=".38" stop-color="#79b461"/><stop offset=".47" stop-color="#75ac64"/><stop offset=".7" stop-color="#659e5a"/><stop offset=".9" stop-color="#3e863d"/></linearGradient><path fill="url(#e)" d="M22.3 0v255.8h217.5V0H22.3z" clip-path="url(#f)"/></svg>