<svg xmlns="http://www.w3.org/2000/svg" xml:space="preserve" style="enable-background:new 0 0 256 256" viewBox="0 0 256 256"><path d="M143.6 213h95.2c3 0 6-.8 8.6-2.3 2.6-1.5 4.8-3.6 6.3-6.2s2.3-5.5 2.3-8.5-.8-5.9-2.3-8.5L189.8 78.2c-1.5-2.6-3.7-4.7-6.3-6.2-2.6-1.5-5.6-2.3-8.6-2.3s-6 .8-8.6 2.3c-2.6 1.5-4.8 3.6-6.3 6.2l-16.3 28-32-54.7c-1.5-2.6-3.7-4.7-6.3-6.2-2.6-1.5-5.6-2.3-8.6-2.3s-6 .8-8.6 2.3c-2.6 1.5-4.8 3.6-6.3 6.2l-79.5 136C.8 190.1 0 193 0 196s.8 5.9 2.3 8.5c1.5 2.6 3.7 4.7 6.3 6.2 2.6 1.5 5.6 2.3 8.6 2.3h59.7c23.7 0 41.1-10.3 53.1-30.3l29.2-49.8 15.6-26.7 46.9 80.1h-62.5L143.6 213zM76 186.3H34.3L96.8 79.4l31.2 53.4-20.9 35.7c-8 13.1-17 17.8-31.1 17.8z" style="fill:#00dc82"/></svg>