<svg xmlns="http://www.w3.org/2000/svg" viewBox="0 0 256 256" style="enable-background:new 0 0 256 256" xml:space="preserve"><style>.st2{fill:#fff}</style><radialGradient id="SVGID_1_" cx="-1544.675" cy="-93.752" r=".356" gradientTransform="translate(876339.125 53269.723) scale(567.278)" gradientUnits="userSpaceOnUse"><stop offset="0" style="stop-color:#aeb2d5"/><stop offset=".3" style="stop-color:#aeb2d5"/><stop offset=".75" style="stop-color:#484c89"/><stop offset="1" style="stop-color:#484c89"/></radialGradient><path d="M5.1 128c0 35.8 55 64.6 122.9 64.6s122.9-29 122.9-64.6c0-35.8-55-64.6-122.9-64.6C60.1 63.3 5.1 92.3 5.1 128" style="fill:url(#SVGID_1_)"/><path d="M128 187.8c65.2 0 118.1-26.7 118.1-59.9 0-33-52.9-59.9-118.1-59.9S9.8 94.8 9.8 128c.2 33.1 52.9 59.8 118.2 59.8" style="fill:#777bb3"/><path d="M71.9 135.4c5.4 0 9.4-1 11.9-3 2.5-1.9 4.2-5.2 5.1-9.9.9-4.4.5-7.4-1-9s-4.8-2.5-9.8-2.5h-8.6l-4.8 24.5h7.1l.1-.1zm-28 30.1c-.4 0-.8-.1-1-.5-.2-.2-.4-.8-.2-1.1l12.6-64.8c.1-.6.6-1.1 1.2-1.1h27.1c8.5 0 14.9 2.4 18.9 6.9 4 4.6 5.2 11 3.6 19.1-.6 3.2-1.8 6.4-3.2 9.1-1.5 2.8-3.5 5.2-6 7.5-3 2.8-6.2 4.8-9.9 5.9-3.5 1.1-8.1 1.8-13.6 1.8h-11l-3.1 16.1c-.1.6-.6 1.1-1.2 1.1H43.9z"/><path class="st2" d="M70.8 112.3h7.5c6 0 8 1.2 8.8 2.1 1.1 1.2 1.4 4 .6 7.9-.9 4.4-2.4 7.4-4.6 9.1-2.3 1.8-6 2.6-11.1 2.6h-5.4l4.2-21.7zm12.8-15.5H56.5c-1.2 0-2.4.9-2.6 2.1l-12.6 64.7c-.1.8 0 1.6.5 2.2.5.6 1.2 1 2 1h14.1c1.2 0 2.4-.9 2.6-2.1l2.9-15.1h9.9c5.6 0 10.2-.6 14-1.8s7.3-3.4 10.4-6.2c2.5-2.4 4.6-5 6.2-7.9s2.7-6 3.4-9.5c1.6-8.5.2-15.2-4-20.2-4-4.8-10.8-7.2-19.7-7.2m-20.3 40h8.6c5.8 0 9.9-1.1 12.7-3.2 2.8-2.1 4.6-5.8 5.6-10.8.9-4.9.5-8.2-1.2-10.2-1.8-2-5.4-3-10.7-3h-9.6l-5.4 27.2m20.3-37.4c8.1 0 14.1 2.1 17.9 6.4s4.9 10.2 3.4 18c-.6 3.1-1.6 6-3.1 8.6s-3.4 5-5.8 7.2c-2.9 2.6-6 4.5-9.4 5.6-3.5 1.1-7.9 1.6-13.3 1.6h-12L57.9 164H43.8l12.6-64.8h27.2"/><path d="M138.5 148.3c-.4 0-.8-.1-1-.5-.2-.2-.4-.7-.2-1.1l5.6-28.6c.5-2.7.4-4.6-.4-5.5-.5-.5-1.9-1.4-6-1.4h-10.1l-7 36c-.1.6-.6 1.1-1.2 1.1h-14c-.4 0-.8-.1-1-.5-.2-.2-.4-.8-.2-1.1l12.6-64.8c.1-.6.6-1.1 1.2-1.1h14c.4 0 .8.1 1 .5.2.2.4.8.2 1.1L129 98h10.9c8.2 0 13.9 1.5 17.1 4.5 3.4 3 4.4 8 3.1 14.5l-5.9 30.1c-.1.6-.6 1.1-1.2 1.1l-14.5.1z"/><path class="st2" d="M130.6 79.5h-14c-1.2 0-2.4.9-2.6 2.1l-12.6 64.8c-.1.8 0 1.6.5 2.2s1.2 1 2 1h14c1.2 0 2.4-.9 2.6-2.1l6.7-35h9c4.1 0 5 .9 5.1.9.2.2.6 1.5 0 4.4l-5.6 28.6c-.1.8 0 1.6.5 2.3.5.6 1.2 1 2 1h14.2c1.2 0 2.4-.9 2.6-2.1l5.9-30.1c1.4-7.1.2-12.4-3.5-15.7-3.5-3.2-9.4-4.8-18-4.8h-9.2l2.7-14c.1-.8 0-1.6-.5-2.2-.3-.9-1.1-1.3-1.8-1.3m0 2.7-3.4 17.2h12.5c7.9 0 13.3 1.4 16.2 4.1 3 2.8 3.9 7.1 2.6 13.3l-5.9 30.1h-14.2l5.6-28.6c.6-3.2.4-5.5-.8-6.6-1.1-1.1-3.5-1.8-7-1.8H125l-7.3 37.1h-13.9l12.6-64.8h14"/><path d="M182 135.4c5.4 0 9.4-1 11.9-3 2.5-1.9 4.2-5.2 5.1-9.9.9-4.4.5-7.4-1-9s-4.8-2.5-9.8-2.5h-8.6l-4.7 24.5h7.1v-.1zm-28 30.1c-.4 0-.8-.1-1-.5-.3-.2-.4-.8-.3-1.1l12.6-64.8c.1-.6.6-1.1 1.2-1.1h27.1c8.5 0 14.9 2.4 18.9 6.9 4 4.6 5.2 11 3.6 19.1-.6 3.2-1.8 6.4-3.3 9.1-1.5 2.8-3.5 5.2-6 7.5-3 2.8-6.2 4.8-9.9 5.9-3.5 1.1-8.1 1.8-13.6 1.8h-11l-3.1 16.1c-.1.6-.6 1.1-1.2 1.1h-14z"/><path class="st2" d="M180.9 112.3h7.5c6 0 8 1.2 8.8 2.1 1.1 1.2 1.4 4 .6 7.9-.9 4.4-2.4 7.4-4.6 9.1-2.2 1.8-6 2.6-11.1 2.6h-5.4l4.2-21.7zm12.9-15.5h-27.1c-1.2 0-2.4.9-2.6 2.1l-12.6 64.7c-.1.8 0 1.6.5 2.2.5.6 1.2 1 2 1h14c1.2 0 2.4-.9 2.6-2.1l2.9-15.1h9.9c5.6 0 10.2-.6 14-1.8s7.3-3.4 10.4-6.2c2.5-2.4 4.6-5 6.2-7.9 1.6-2.9 2.7-6 3.4-9.5 1.6-8.5.2-15.2-4-20.2-4.1-4.8-10.8-7.2-19.6-7.2m-20.4 40h8.6c5.8 0 9.9-1.1 12.8-3.2 2.8-2.1 4.6-5.8 5.6-10.8.9-4.9.5-8.2-1.2-10.2-1.8-2-5.4-3-10.8-3h-9.6l-5.4 27.2m20.4-37.4c8.1 0 14.1 2.1 17.9 6.4s4.9 10.2 3.4 18c-.6 3.1-1.6 6-3.1 8.6s-3.4 5-5.8 7.2c-2.9 2.6-6 4.5-9.4 5.6-3.5 1.1-7.9 1.6-13.1 1.6h-12.1l-3.4 17.2H154l12.6-64.8h27.2"/></svg>