<svg xmlns="http://www.w3.org/2000/svg" xml:space="preserve" id="Layer_1" x="0" y="0" style="enable-background:new 0 0 256 256" version="1.1" viewBox="0 0 256 256"><style>.st1{fill:#525353}.st2{fill:#aa9678}.st3{fill:#c0b098}.st6{fill:none}.st7{fill:#fff}.st8{fill:#bbbcbd}.st9{fill:#676a6a}.st10{fill:#909393}.st11{fill:#e2dddb}.st12{fill:#fbb040}</style><path d="M83 196.4c2-.9 4.1-1.7 6.2-2.5 2.4-.9 4.7-1.7 7.1-2.4 3-.9 6-1.7 9.1-2.4 4.1-.9 8.3-1.5 12.5-1.9-2.4 7.4-5 14.8-7.8 22.2.1 1.4.2 2.9.2 4.3 5.7-1.1 11.6-1.7 17.6-1.7s11.9.6 17.6 1.7c0-1.4.1-2.9.2-4.3-2.8-7.3-5.4-14.7-7.8-22.2 4.2.4 8.4 1.1 12.5 1.9 3.1.7 6.1 1.5 9.1 2.4 2.4.7 4.8 1.6 7.2 2.4 2.1.8 4.2 1.6 6.2 2.5 14.5 6.5 27.7 16 38.6 28.5 27.2-23.5 44.4-58.2 44.4-96.9C256 57.3 198.7 0 128 0S0 57.3 0 128c0 38.7 17.2 73.4 44.4 96.9 10.9-12.4 24.1-22 38.6-28.5z" style="fill:#a0dbe8"/><path d="M91.4 219.6c6-2.7 12.4-4.7 19-6 0-1.4-.1-2.9-.2-4.3 2.8-7.3 5.4-14.7 7.8-22.2-4.2.4-8.4 1.1-12.5 1.9-3.1.7-6.1 1.5-9.1 2.4-2.4.7-4.8 1.6-7.1 2.4l9.3 2.3-7.2 23.5zM69.4 233.4c.2-2.4.4-4.8.4-7.2 0-1.5 1.2-2.6 2.6-2.6h2.3l8.2-27.1c-14.5 6.5-27.7 16-38.6 28.5 6 5.2 12.4 9.8 19.3 13.8 1.9-2 3.8-3.7 5.8-5.4zM173 196.4l8.2 27.1h2.3c1.5 0 2.6 1.2 2.6 2.6 0 2.4.1 4.8.4 7.2 2 1.7 3.9 3.4 5.7 5.3 6.9-4 13.3-8.6 19.3-13.8-10.8-12.3-24-21.9-38.5-28.4zM157.5 196.1l9.3-2.3c-2.4-.9-4.7-1.7-7.2-2.4-3-.9-6-1.7-9.1-2.4-4.1-.9-8.3-1.5-12.5-1.9 2.4 7.4 5 14.8 7.8 22.2-.1 1.4-.2 2.9-.2 4.3 6.6 1.3 13 3.3 19 6l-7.1-23.5z" class="st1"/><path d="M128 223.5h18c-.4-3.3-.5-6.6-.4-9.9-5.7-1.1-11.6-1.7-17.6-1.7s-11.9.6-17.6 1.7c.1 3.3 0 6.6-.4 9.9h18zM63.7 238.7c1.5.9 3 1.7 4.5 2.5.5-2.6.9-5.2 1.2-7.8-2 1.7-3.9 3.4-5.7 5.3z"/><path d="M90.2 223.5H110c.4-3.3.5-6.6.4-9.9-6.6 1.3-13 3.3-19 6l-1.2 3.9zM186.6 233.4c.3 2.6.7 5.2 1.2 7.8 1.5-.8 3-1.7 4.5-2.5-1.8-1.9-3.7-3.6-5.7-5.3zM165.8 223.5l-1.2-3.9c-6-2.7-12.4-4.7-19-6-.1 3.3 0 6.6.4 9.9h19.8z"/><path d="m90.2 223.5 1.2-3.9 7.1-23.4-9.3-2.3c-2.1.8-4.2 1.6-6.2 2.5l-8.2 27.1h15.4zM164.6 219.6l1.2 3.9h15.4l-8.2-27.1c-2-.9-4.1-1.7-6.2-2.5l-9.3 2.3 7.1 23.4z" class="st2"/><path d="M75 229c.1-.1.2-.1.2-.2H75v.2zM128 228.8H75.3c-.1.1-.2.1-.2.2-.2 5-.8 9.9-1.9 14.7 16.6 7.9 35.2 12.4 54.9 12.4v-27.3z" class="st3"/><path d="M180.9 228.8h-.2c.1.1.2.1.2.2.1-.1.1-.1 0-.2z" class="st2"/><path d="M180.7 228.8H128V256c19.6 0 38.3-4.4 54.9-12.4-1.1-4.8-1.8-9.7-1.9-14.7-.1 0-.2 0-.3-.1z" class="st2"/><path d="M186.6 233.4c-.2-2.4-.4-4.8-.4-7.2 0-1.5-1.2-2.6-2.6-2.6H72.5c-1.5 0-2.6 1.2-2.6 2.6 0 2.4-.1 4.8-.4 7.2-.3 2.6-.7 5.2-1.2 7.8 1.6.9 3.2 1.7 4.9 2.5 1.1-4.8 1.8-9.7 1.9-14.7v-.2H180.9v.2c.2 5 .8 9.9 1.9 14.7 1.7-.8 3.3-1.6 4.9-2.5-.5-2.6-.9-5.2-1.1-7.8z" style="fill:#8b7460"/><path d="M171.1 108.6c1.6 4.6 3.4 9.3 4.4 14.1 0 .3-.1.7-.1 1-.1.5-.2 1-.3 1.4.1-.6.3-1.4.4-2.3-.9-4.9-2.8-9.6-4.4-14.2zM208.4 137.5c-.1 0-.1.1-.2.1 0 0 .1-.1.2-.1zM209.2 136.9l-.3.3c.1-.2.2-.3.3-.3zM167.2 105.2c-2.9-2.5-6-4.7-9.3-6.7 3.3 1.9 6.4 4.2 9.3 6.7zM196.9 135.9s.1 0 0 0c.1 0 0 0 0 0zM202.3 142.6l.3.3-.3-.3zM175 125.2c-.1.4-.2.7-.3 1 .2-.2.3-.6.3-1zM162.5 171.9c-2 3.3-3.2 6.4-3.9 9.3.7-2.9 1.9-6 3.9-9.3.6-1.1 1.3-2.1 1.9-3.2-.6 1.1-1.2 2.1-1.9 3.2zM171.1 108.5c.1-.2.2-.5.3-.7-.1.3-.2.5-.3.7.8.7 1.5 1.3 2.3 2-.8-.6-1.5-1.3-2.3-2zM145.7 125.3zM144.7 123.2zM153.4 95.8c-.2-.1-.3-.2-.4-.2.1.1.2.1.4.2zM154 96.2c-.2-.1-.4-.2-.5-.3.2.1.3.2.5.3zM158.2 106.5v.9-.9zM145.3 124.2zM207.6 149.4c.2.2.3.4.5.6-.2-.2-.4-.4-.5-.6zM158.2 110.5c0 1.3-.1 2.7-.1 4 .1-1.3.1-2.6.1-4zM146 126.5zM157.7 98.3zM154.8 96.6c-.3-.2-.5-.3-.8-.4.3.1.6.3.8.4zM157.9 98.4zM211.8 129.5v-.6.3c.1.1 0 .2 0 .3zM190.9 128.7c.1.1.2.3.4.4-.1 0-.2-.2-.4-.4zM173.4 110.6c1.7 1.6 3.4 3.2 5 4.8-1.7-1.7-3.3-3.3-5-4.8zM206.7 120.3c.3 0 .6.1.9.2-.3-.1-.6-.2-.9-.2zM201.8 126.7c0 .2-.1.3-.1.5 0-.2.1-.4.1-.5zM207.9 120.6l.6.3-.6-.3zM209.9 122.2c.1.1.1.2.2.3-.1-.1-.2-.2-.2-.3zM211.7 127.3v-.2.2zM211.7 131.1c0-.1 0-.1 0 0 0-.1 0-.1 0 0v.1-.1zM203.4 122.5c.1-.1.1-.2.2-.3-.1.1-.2.2-.2.3z" class="st6"/><path d="M205.8 120.5c.3-.1.6-.2.9-.2-.3 0-.6.1-.9.2zM183.1 120.1c-.8-.8-1.6-1.6-2.4-2.5.8.9 1.6 1.7 2.4 2.5zM206.7 92.3v11.9l-4.6 20.9v.2-.1l4.6-20.9v-12zM187.3 124.7c-.4-.5-.8-.9-1.3-1.4.5.5.9.9 1.3 1.4zM211.3 125.1c.1.2.1.3.2.5-.1-.2-.2-.3-.2-.5zM201.6 129.1v-.2.2zM204.9 120.9l.6-.3-.6.3zM204 121.7c.2-.2.4-.4.7-.6-.3.2-.5.4-.7.6zM211.4 132.7c-.1.4-.3.9-.4 1.3.2-.4.3-.9.4-1.3zM55.4 125.2l.6-.9-.6.9zM208.8 121.1c.2.2.4.4.7.6-.3-.2-.5-.4-.7-.6zM59.1 119.9c.1-.1.2-.3.3-.4-.2.1-.2.2-.3.4zM146.3 129.1c0-.1 0-.1 0 0 0-.1 0-.1 0 0zM49.9 135.4c-.2.5-.4.9-.7 1.4.2-.5.4-.9.7-1.4zM47.1 141.9c0 .1-.1.2-.1.2s0-.1.1-.2zM209.9 95.4zM72.4 105.5h-.1.1zM67.3 110.2l.8-.8c-.2.3-.5.5-.8.8zM62.8 115.1c.3-.3.5-.6.8-.9-.3.3-.5.6-.8.9zM211.3 125.1l-4.6-20.8 4.6 20.8zM131.8 140.9c-.1 0-.2 0-.3-.1.1.1.2.1.3.1zM133 141.1h-.3.3zM52.7 129.9c-.3.5-.6 1.1-.8 1.6.2-.6.5-1.1.8-1.6zM128.4 139.7zM130.6 140.6c-.1 0-.1 0-.2-.1.1.1.1.1.2.1zM129.5 140.2c-.1 0-.1 0 0 0-.1 0-.1 0 0 0zM123.1 133.7zM122.5 126.4c0 .1 0 .2-.1.3.1-.1.1-.2.1-.3zM123.8 123.2s-.1 0 0 0c-.1 0 0 0 0 0zM127.8 119zM122.8 125.3c0 .1 0 .1-.1.2.1-.1.1-.2.1-.2zM123.2 124.2s0 .1-.1.1c.1 0 .1 0 .1-.1zM136.6 117.3zM138.8 118zM129.8 117.9c0 .1-.1.1 0 0-.1.1 0 .1 0 0zM132 117.3c-.1 0-.1 0 0 0-.1 0 0 0 0 0zM146.2 127.7zM134.3 90.3v-.5.5zM134.3 89.5v-.3.3zM134.3 89s0-.1 0 0c0-.1 0 0 0 0zM134.3 91.9v-1.2 1.2zM210.2 135.6c-.1.2-.3.4-.4.6.2-.2.3-.4.4-.6zM122.3 127.6v.3-.3zM122.4 131.5zM210.9 134.3c-.1.3-.3.6-.4.8.1-.2.3-.5.4-.8z" class="st6"/><path d="M164.6 205.2c-.4-.4-.8-.9-1.2-1.5.5.6.9 1.1 1.2 1.5z" class="st1"/><path d="M167.6 208.2s-1.3-1-2.9-2.9c1.6 1.8 2.9 2.9 2.9 2.9z" class="st2"/><path d="M211.9 129.2z" class="st7"/><path d="M213.2 99.5c-1.1-1.6-2.2-2.9-3.3-4.1-.5-.6-1-1.1-1.6-1.6-.2-.2-.4-.4-.6-.5-.3-.3-.7-.6-1-.9v11.9l4.6 20.9c0 .2.1.3.2.5l3.2 3.5h3.3v-.9c0-9.8-1.6-19.3-4.5-28.2-.2-.2-.2-.4-.3-.6zM211.9 129.2s0-.1 0 0c0-.1 0 0 0 0z" class="st8"/><path d="M211.7 127.2v.2c.1.5.1 1 .1 1.5v.6c0 .5 0 1-.1 1.5v.2l-.3 1.5 3.1-3.5-3.2-3.5c.2.4.3.9.4 1.5z" class="st9"/><path d="M211.7 131.2v-.2c.1-.5.1-1 .1-1.5v-.6c0-.5 0-1-.1-1.5v-.2c-.1-.5-.2-1.1-.3-1.5 0-.2-.1-.3-.2-.5-.3-1-.7-1.9-1.2-2.6-.1-.1-.1-.2-.2-.3-.1-.2-.3-.4-.4-.5-.2-.2-.4-.4-.7-.6-.1-.1-.2-.1-.3-.2l-.6-.3c-.1 0-.2-.1-.3-.1-.3-.1-.6-.2-.9-.2s-.6.1-.9.2c-.1 0-.2.1-.3.1l-.6.3c-.1.1-.2.1-.3.2-.2.2-.5.4-.7.6-.1.2-.3.3-.4.5-.1.1-.1.2-.2.3-.5.7-.9 1.6-1.2 2.6v.1c-.1.5-.2.9-.3 1.4 0 .2-.1.3-.1.5-.1.6-.1 1.1-.1 1.7v.2c0 4.9 2.3 8.8 5.2 8.8.5 0 1-.1 1.4-.3.1 0 .1-.1.2-.1.2-.1.4-.2.5-.4l.3-.3c.2-.2.4-.5.6-.7.1-.2.3-.4.4-.6.1-.1.2-.3.2-.4.1-.3.3-.5.4-.8 0-.1.1-.2.1-.3.2-.4.3-.8.4-1.3.3-.5.4-1 .5-1.5zm-4.8-3.2c-1.1 0-1.9-1.5-1.9-3.3 0-1.8.9-3.3 1.9-3.3 1.1 0 1.9 1.5 1.9 3.3 0 1.8-.8 3.3-1.9 3.3z"/><path d="M206.9 121.4c-1.1 0-1.9 1.5-1.9 3.3 0 1.8.9 3.3 1.9 3.3 1.1 0 1.9-1.5 1.9-3.3 0-1.9-.8-3.3-1.9-3.3z" class="st7"/><path d="M202.1 125.1c.3-1 .7-1.9 1.2-2.6.1-.1.1-.2.2-.3.1-.2.3-.4.4-.5.2-.2.4-.4.7-.6.1-.1.2-.1.3-.2l.6-.3c.1 0 .2-.1.3-.1.3-.1.6-.2.9-.2.3 0 .6.1.9.2.1 0 .2.1.3.1l.6.3c.1.1.2.1.3.2.2.2.5.4.7.6.1.2.3.3.4.5.1.1.1.2.2.3.5.7.9 1.6 1.2 2.6l-4.6-20.9-4.6 20.9z" class="st10"/><path d="M146.3 129c0-.4 0-.8-.1-1.2 0-.4-.1-.8-.2-1.2-.1-.4-.2-.8-.3-1.1-.1-.4-.3-.7-.4-1.1-.2-.4-.3-.7-.5-1-.6-1-1.3-2-2.2-2.8-1.1-1-2.3-1.9-3.7-2.4-.7-.3-1.4-.5-2.2-.7h-.1c-.7-.1-1.5-.2-2.3-.2-.8 0-1.5.1-2.3.2h-.1c-.7.1-1.4.4-2.1.6h-.1c-.7.3-1.3.6-2 1-.6.4-1.2.9-1.7 1.4-.9.8-1.6 1.8-2.2 2.8-.2.3-.3.6-.5 1 0 0 0 .1-.1.1-.1.3-.3.6-.4 1 0 .1 0 .1-.1.2-.1.3-.2.6-.2.9 0 .1 0 .2-.1.3-.1.3-.1.6-.1.9v.3c0 .4-.1.8-.1 1.3 0 .8.1 1.6.2 2.3.2.8.4 1.5.7 2.2.6 1.4 1.4 2.7 2.5 3.8.8.9 1.8 1.6 2.8 2.2.3.2.7.3 1 .5h.1c.3.1.6.3 1 .4.1 0 .1 0 .2.1.3.1.6.2.9.2.1 0 .2 0 .3.1.3.1.6.1.9.1h.3c.4 0 .8.1 1.3.1 1.7 0 3.3-.3 4.7-.9.7-.3 1.4-.7 2-1.1 1.3-.9 2.4-2 3.3-3.3.4-.6.8-1.3 1.1-2 .6-1.4.9-3 .9-4.7-.1-.2-.1-.2-.1-.3zm-12.1-1.4c-2.5 0-4.5-2-4.5-4.5s2-4.5 4.5-4.5 4.5 2 4.5 4.5c.1 2.4-1.9 4.5-4.5 4.5z"/><path d="M134.2 118.5c-2.5 0-4.5 2-4.5 4.5s2 4.5 4.5 4.5 4.5-2 4.5-4.5c.1-2.5-1.9-4.5-4.5-4.5z" class="st7"/><path d="m126 120.4 8.4-25.5v-6c-4.6-.9-9.4-1.5-14.2-1.5-1.6 0-3.2.1-4.8.2h-.7c-8.3.6-16.5 2.8-24.1 6.3-6.5 3-12.6 6.9-18 11.5-1.5 1.2-2.9 2.6-4.2 3.9l-.8.8c-1.3 1.3-2.5 2.6-3.7 4-.3.3-.5.6-.8.9-1.2 1.4-2.4 2.9-3.5 4.4-.1.1-.2.3-.3.4-1.1 1.4-2.1 2.9-3.1 4.4l-.6.9c-.8 1.3-1.5 2.5-2.3 3.8h37.8-.1l35-8.5z" class="st8"/><path d="M157.9 117.5c.1-1 .1-2 .2-3 .1-1.3.1-2.7.1-4v-4c0-2.7-.1-5.4-.3-8.1h-.1s-.1 0-.1-.1c-.5-.3-1.7-1-2.8-1.6h-.1c-.3-.2-.5-.3-.8-.4-.2-.1-.4-.2-.5-.3 0 0-.1 0-.1-.1-.2-.1-.3-.2-.4-.2-1.7-.9-3.5-1.7-5.3-2.5-4.3-1.8-10.1-3.4-13.4-4.2v6l8.2 25.4c.8.8 1.6 1.7 2.2 2.8.2.3.4.7.5 1 .2.4.3.7.4 1.1.1.4.2.7.3 1.1.1.4.2.8.2 1.2 0 .4.1.8.1 1.2v.1h10.1c.7-3.7 1.2-7.4 1.5-11.2.1.1.1-.1.1-.2z" class="st11"/><path d="M171.1 108.5c0 .1 0 .1 0 0 0 .1 0 .1 0 0zM146.4 165.3c2.3-2.3 4.4-4.5 6.5-6.6 1.2-1.3 2.4-2.5 3.6-3.8 8.4-9.1 14.6-17.7 18.3-28.7.1-.3.2-.6.3-1v-.2c.1-.4.2-.9.3-1.4 0-.4.1-.7.1-1-.9-4.8-2.8-9.5-4.4-14.1-.3-.3-.6-.6-.9-.8-.9-.9-1.9-1.7-2.9-2.6-2.9-2.5-6-4.7-9.3-6.7.2 2.7.3 5.4.3 8.1v4c0 1.3-.1 2.7-.1 4-.1 1-.1 2-.2 3v.3c-.3 3.8-.8 7.5-1.5 11.2l-1.2 5.6c-2.5 10-7.5 19.1-11.6 28.5-1.1 2.5-2.1 5-3 7.6-.1.2-.2.5-.3.7 1.3-1.4 2.4-2.5 3.3-3.4.8-.9 1.8-1.8 2.7-2.7z" class="st12"/><path d="M126 120.4c.5-.5 1.1-1 1.7-1.4.6-.4 1.3-.7 2-1h.1c.7-.3 1.4-.5 2.1-.6h.1c.7-.1 1.5-.2 2.3-.2.8 0 1.6.1 2.3.2h.1c.7.1 1.5.4 2.2.7 1.4.6 2.7 1.4 3.7 2.4L134.3 95l-8.3 25.4z" class="st10"/><path d="M123.1 133.7c-.3-.7-.5-1.4-.7-2.2-.1-.8-.2-1.5-.2-2.3 0-.4 0-.8.1-1.3v-.3c0-.3.1-.6.1-.9 0-.1 0-.2.1-.3.1-.3.2-.6.2-.9 0-.1 0-.1.1-.2.1-.3.2-.6.4-1 0 0 0-.1.1-.1.2-.3.3-.7.5-1 .6-1 1.3-2 2.2-2.8L91 129h-.1l34.6 8.4c-1-1-1.8-2.3-2.4-3.7z" class="st9"/><path d="M201.7 127.1c0-.2.1-.3.1-.5.1-.5.2-1 .3-1.4v-.2l4.6-20.9V92.2c-3.7-3.1-7.7-4.8-11.9-4.8-5.2 0-10.1 2.9-13.8 6.5-4 3.9-7.1 8.8-9.6 13.8-.1.2-.2.4-.3.7.8.7 1.5 1.3 2.3 2 1.7 1.6 3.4 3.2 5 4.8l2.3 2.3c.8.8 1.6 1.6 2.4 2.5 1 1.1 2 2.1 3 3.2.4.5.8.9 1.3 1.4 1.2 1.3 2.4 2.7 3.6 4 .2.2.3.4.4.4h10.3v-.2c-.1-.5-.1-1.1 0-1.7zM171.1 108.6z" class="st11"/><path d="M47 142.2c0-.1.1-.2.1-.2l2.1-5.1c.2-.5.4-.9.7-1.4.6-1.3 1.3-2.6 2-3.9.3-.5.5-1.1.8-1.6.2-.3.3-.6.5-.9.7-1.3 1.5-2.6 2.3-3.8l.6-.9c1-1.5 2-3 3.1-4.4.1-.1.2-.3.3-.4 1.1-1.5 2.3-3 3.5-4.4.3-.3.5-.6.8-.9 1.2-1.4 2.4-2.7 3.7-4l.8-.8c1.4-1.3 2.8-2.7 4.2-3.9 5.7-19.3 23.3-33.3 44.2-33.3 8.4 0 16.7 2.4 23.9 6.8 7.3 4.5 13.3 11 17.2 18.7 0 0 0 .1.1.1l.3.6c3.2 2 6.3 4.3 9.3 6.7 1 .8 1.9 1.7 2.9 2.6.3.3.6.6.9.8.1-.2.2-.4.3-.7 2.9-18.5 11.1-31.9 20.7-31.9 7.3 0 13.7 7.6 17.7 19.2v.1c1.1 1.2 2.2 2.6 3.3 4 0 0 0 .1.1.1.1.2.1.3.2.5l-.2-.6c-12-35.5-45.5-61-85.1-61-49.6 0-89.8 40.2-89.8 89.8 0 9.8 1.6 19.2 4.5 27.9v-.1c.6-2.6 1.3-5.3 2-7.9.5-1.8 1.2-3.8 2-5.8z" class="st1"/><path d="m214.6 129.2-3.1 3.5c-.1.5-.3.9-.4 1.3 0 .1-.1.2-.1.3-.1.3-.3.6-.4.8-.1.1-.2.3-.2.4-.1.2-.3.4-.4.6-.2.3-.4.5-.6.7l-.3.3c-.2.1-.4.3-.5.4-.1 0-.1.1-.2.1-.4.2-.9.3-1.4.3-2.8 0-5.2-4-5.2-8.8h-10.3c1.9 2.2 3.8 4.5 5.7 6.7 0 0 0 .1.1.1 1.8 2.2 3.6 4.4 5.4 6.7l.3.3c1.7 2.1 3.3 4.3 5 6.4.2.2.3.4.5.6 1.7 2.3 3.5 4.6 5.2 6.9 3-8.7 4.6-18.1 4.7-27.8l-3.8.2z" class="st7"/><path d="M114.5 87.7h.7c1.6-.1 3.2-.2 4.8-.2 4.9 0 9.6.5 14.2 1.5V91.3 89c3.3.8 9.1 2.4 13.4 4.2 1.8.8 3.6 1.6 5.3 2.5.1 0 .2.1.4.2 0 0 .1 0 .1.1.2.1.3.2.5.3.2.1.5.3.8.4h.1c1.1.6 2.3 1.3 2.8 1.6.1 0 .1.1.1.1h.1l-.3-.6s0-.1-.1-.1c-3.9-7.7-9.8-14.2-17.2-18.7-7.1-4.4-15.5-6.8-23.9-6.8-20.8 0-38.4 14-44.2 33.3 5.4-4.6 11.5-8.6 18-11.5 7.9-3.5 16.1-5.7 24.4-6.3z"/><path d="M134.3 91.2v.6" style="fill:none;stroke:#000;stroke-width:0;stroke-linecap:round;stroke-linejoin:round"/><path d="M181 94c3.7-3.6 8.6-6.5 13.8-6.5 4.2 0 8.1 1.7 11.9 4.8.3.3.7.6 1 .9.2.2.4.3.6.5l1.6 1.6v-.1c-4-11.7-10.4-19.2-17.7-19.2-9.6 0-17.8 13.3-20.7 31.9 2.4-5 5.5-10 9.5-13.9z"/><path d="M96 211.9c.8.3 1.7.6 2.5.9 9.3 3.3 19.3 5 29.7 5 11.9 0 23.2-2.3 33.5-6.5.5-.2 1.1-.5 1.6-.7.9-.4 1.8-.8 2.6-1.2.8-.4 1.5-.7 2.3-1.1-.2 0-.4.1-.6.1-3.2.4-6.4.4-9.5-.1-18.5-2.7-22.6-11.6-22-20.8-1.3-.8-2.7-1.6-4.1-2.6-14.2-10.3-22.6-21.3-22.6-21.3s11 8.5 27.3 14.8c.4.1.7.3 1 .4.8-2.6 1.7-5.2 2.5-7.4.1-.2.2-.5.3-.7.9-2.6 1.9-5.1 3-7.6 4.1-9.4 9.2-18.5 11.6-28.5l1.2-5.6h-10.1v.1c0 1.7-.3 3.3-.9 4.7-.3.7-.7 1.4-1.1 2-.9 1.3-2 2.4-3.3 3.3-.6.4-1.3.8-2 1.1-1.4.6-3 .9-4.7.9-.4 0-.8 0-1.3-.1h-.3c-.3 0-.6-.1-.9-.1-.1 0-.2 0-.3-.1-.3-.1-.6-.2-.9-.2-.1 0-.1 0-.2-.1-.3-.1-.7-.2-1-.4h-.1c-.3-.2-.7-.3-1-.5-1-.6-2-1.3-2.8-2.2L90.9 129H53.2c-.2.3-.3.6-.5.9-.3.5-.6 1.1-.8 1.6-.7 1.3-1.3 2.6-2 3.9-.2.5-.4.9-.7 1.4-.8 1.7-1.5 3.4-2.1 5.1 0 .1-.1.2-.1.2-.8 2-1.4 4-2.1 6-.8 2.6-1.5 5.2-2 7.9 5.9 18.1 17.5 33.7 32.6 44.7.4.3.9.6 1.3.9 2.6 1.8 5.2 3.5 7.9 5 3.7 2 7.4 3.8 11.3 5.3z" class="st7"/><path d="M158 184c-.1 1-.2 1.9-.3 2.8-.1 1.7.1 3.2.3 4.7.2 1 .4 1.9.6 2.9.4 1.4.9 2.7 1.4 3.8.5 1.2 1.2 2.3 1.8 3.3.2.3.4.6.6 1 .3.5.6.9.9 1.3l1.2 1.5c1.6 1.9 2.9 2.9 2.9 2.9v.1c0 .1 0 .1.1.2.2 0 .4-.1.6-.1 4-.5 8-1.6 12-3 2-.7 4-1.5 6-2.4l1.8-.9c20.6-9.9 37.8-27.5 37.8-27.5-25.7 12.6-50.9 12.1-67.7 9.4z" style="fill:#9f2255"/><path d="M207.6 149.4c-1.6-2.2-3.3-4.3-5-6.4l-.3-.3c-1.8-2.2-3.5-4.5-5.4-6.7 0 0 0-.1-.1-.1-1.9-2.3-3.7-4.5-5.7-6.7-.1-.1-.2-.3-.4-.4-1.2-1.4-2.4-2.7-3.6-4-.4-.5-.8-.9-1.3-1.4-1-1.1-2-2.2-3-3.2-.8-.8-1.6-1.6-2.4-2.5l-2.3-2.3c-1.6-1.6-3.3-3.2-5-4.8-.8-.7-1.5-1.4-2.3-2 1.6 4.7 3.5 9.4 4.4 14.2.2 1.3.4 2.5.6 3.7 2.3 16.8-3.1 27.8-11.7 42.3-.6 1-1.2 2.1-1.9 3.2-2 3.3-3.2 6.4-3.9 9.3-.2 1-.4 1.9-.6 2.8 16.8 2.7 42 3.2 67.9-9.5 0 0-5.1-7.4-12.7-17.7-1.7-2.3-3.4-4.6-5.2-6.9.2-.2 0-.4-.1-.6z" style="fill:#e2066f"/><path d="M167.6 208.2s-1.3-1-2.9-2.9c-.4-.4-.8-.9-1.2-1.5-.3-.4-.6-.8-.9-1.3-.2-.3-.4-.6-.6-1-.6-1-1.2-2.1-1.8-3.3-.5-1.2-1-2.5-1.4-3.8-.3-.9-.5-1.9-.6-2.9-.2-1.5-.4-3.1-.3-4.7 0-.9.1-1.9.3-2.8.1-.9.3-1.9.6-2.8.7-2.9 2-6 3.9-9.3.6-1.1 1.3-2.1 1.9-3.1 8.6-14.5 14-25.4 11.7-42.3-.2-1.2-.4-2.4-.6-3.7-.1.9-.3 1.6-.4 2.3v.2c-.1.4-.2.7-.3 1-3.7 11-9.9 19.6-18.3 28.7-1.1 1.2-2.3 2.5-3.6 3.8-2.1 2.1-4.2 4.3-6.5 6.6l-2.8 2.8c-.9.9-2 2-3.3 3.4-.8 2.2-1.7 4.7-2.5 7.4-.3-.1-.7-.2-1-.4-16.4-6.3-27.3-14.8-27.3-14.8s8.4 11 22.6 21.3c1.4 1 2.7 1.9 4.1 2.6-.6 9.3 3.5 18.2 22 20.8 3.1.4 6.3.4 9.5.1-.2-.2-.3-.3-.3-.4z"/></svg>