<svg xmlns="http://www.w3.org/2000/svg" xml:space="preserve" style="enable-background:new 0 0 256 256" viewBox="0 0 256 256"><style>.st1{fill:url(#SVGID_00000057144356872676105310000001876372637886470064_)}</style><linearGradient id="SVGID_1_" x1="113.602" x2="240.503" y1="-274.954" y2="-402.28" gradientTransform="matrix(1 0 0 -1 -89.875 -251.846)" gradientUnits="userSpaceOnUse"><stop offset="0" style="stop-color:#387eb8"/><stop offset="1" style="stop-color:#366994"/></linearGradient><path d="M127.1 0c-65 0-60.9 28.3-60.9 28.3l.1 29.4h62v8.8H41.6S0 61.8 0 127.7s36.3 63.6 36.3 63.6H58v-30.6s-1.2-36.5 35.7-36.5h61.5s34.6.6 34.6-33.6V34.2S195 0 127.1 0zM92.9 19.7c6.2 0 11.2 5 11.2 11.2s-5 11.2-11.2 11.2-11.2-5-11.2-11.2c.1-6.2 5-11.2 11.2-11.2z" style="fill:url(#SVGID_1_)"/><linearGradient id="SVGID_00000163070016040045419900000001215463766602214077_" x1="191.712" x2="327.994" y1="-356.283" y2="-486.848" gradientTransform="matrix(1 0 0 -1 -89.875 -251.846)" gradientUnits="userSpaceOnUse"><stop offset="0" style="stop-color:#ffe052"/><stop offset="1" style="stop-color:#ffc331"/></linearGradient><path d="M129 256c65 0 60.9-28.3 60.9-28.3l-.1-29.4h-62v-8.8h86.7s41.6 4.7 41.6-61.2-36.3-63.6-36.3-63.6h-21.7v30.6s1.2 36.5-35.7 36.5h-61.5s-34.6-.6-34.6 33.6v56.4S61 256 129 256zm34.2-19.8c-6.2 0-11.2-5-11.2-11.2s5-11.2 11.2-11.2 11.2 5 11.2 11.2c-.1 6.2-5.1 11.2-11.2 11.2z" style="fill:url(#SVGID_00000163070016040045419900000001215463766602214077_)"/></svg>