<svg xmlns="http://www.w3.org/2000/svg" xml:space="preserve" style="enable-background:new 0 0 256 256" viewBox="0 0 256 256"><style>.st0{fill:#61dafb}</style><circle cx="128" cy="128" r="22.8" class="st0"/><path d="M128 180.2C56.2 180.2 0 157.3 0 128s56.2-52.2 128-52.2S256 98.7 256 128s-56.2 52.2-128 52.2zm0-93.3c-68.9 0-116.9 21.7-116.9 41.1s48 41.1 116.9 41.1 116.9-21.7 116.9-41.1c0-19.5-48-41.1-116.9-41.1z" class="st0"/><path d="M179.1 242c-11.3 0-25.1-6.2-39.9-18.3-19.7-16-39.8-40.7-56.5-69.6C66 125.3 54.6 95.6 50.6 70.5 46.3 43.7 51 24.8 64 17.3c12.9-7.5 31.7-2.1 52.8 15 19.7 16 39.8 40.7 56.5 69.6s28.1 58.6 32.1 83.6c4.3 26.8-.5 45.7-13.4 53.2-3.8 2.2-8.2 3.3-12.9 3.3zM77.1 25.1c-2.8 0-5.4.6-7.5 1.8-8.5 4.9-11.5 20.2-8 41.8 3.8 23.8 14.7 52.1 30.8 79.8s35.1 51.3 53.8 66.5c17 13.8 31.7 18.9 40.3 14 8.5-4.9 11.5-20.2 8-41.8-3.8-23.8-14.7-52.1-30.8-79.8-16-27.7-35.1-51.3-53.8-66.5C97 30.5 85.6 25.1 77.1 25.1z" class="st0"/><path d="M76.9 242c-4.8 0-9.1-1.1-12.9-3.3-13-7.5-17.7-26.4-13.4-53.2 4-25.1 15.4-54.8 32.1-83.6 16.7-28.9 36.7-53.6 56.5-69.6 21.1-17.2 39.9-22.5 52.8-15 25.4 14.6 17.2 74.8-18.7 136.8-16.7 28.9-36.7 53.6-56.5 69.6C102 235.8 88.2 242 76.9 242zm102-216.9c-8.5 0-20 5.5-32.8 15.8-18.7 15.2-37.8 38.8-53.8 66.5s-26.9 56.1-30.8 79.8c-3.5 21.7-.6 36.9 8 41.8 8.6 4.9 23.2-.2 40.3-14 18.7-15.2 37.8-38.8 53.8-66.5C198.1 89 203.3 36.6 186.4 26.9c-2.1-1.2-4.6-1.8-7.5-1.8z" class="st0"/></svg>