<svg xmlns="http://www.w3.org/2000/svg" viewBox="0 0 256 256" style="enable-background:new 0 0 256 256" xml:space="preserve"><path d="M220.4 141.4c-8.9 0-16.7 2.2-23.2 5.4-2.4-4.7-4.8-8.9-5.2-12-.5-3.6-1-5.8-.5-10.1.6-4.3 3.1-10.4 3-10.9 0-.5-.6-2.7-5.7-2.7-5.1 0-9.6 1-10.1 2.3s-1.5 4.4-2.2 7.6c-.9 4.7-10.3 21.4-15.7 30.1-1.7-3.4-3.2-6.4-3.6-8.8-.5-3.6-1-5.8-.5-10.1.6-4.3 3.1-10.4 3-10.9 0-.5-.6-2.7-5.7-2.7-5.1 0-9.6 1-10.1 2.3s-1.1 4.5-2.2 7.6c-1.1 3.1-13.6 31-16.8 38.2-1.7 3.7-3.1 6.6-4.2 8.7 0 0 0 .1-.2.4-.9 1.7-1.4 2.7-1.4 2.7-.7 1.3-1.4 2.4-1.8 2.4-.3 0-.8-3.4.1-7.9 1.9-9.7 6.3-24.7 6.3-25.3 0-.3.8-2.9-2.9-4.3-3.6-1.4-5 .9-5.3.9s-.6.8-.6.8 4.1-16.9-7.8-16.9c-7.4 0-17.6 8.1-22.6 15.4-3.2 1.7-10 5.4-17.2 9.4-2.8 1.5-5.6 3.1-8.3 4.5l-.6-.6c-14.3-15.3-40.8-26.1-39.7-46.6.4-7.5 3-27.1 50.8-51 39.4-19.4 70.7-14 76.1-2.1 7.8 17-16.8 48.6-57.5 53.2-15.5 1.7-23.7-4.3-25.7-6.5-2.2-2.3-2.5-2.5-3.3-2-1.3.7-.5 2.8 0 4 1.2 3.2 6.2 8.8 14.7 11.6 7.5 2.4 25.7 3.8 47.7-4.7 24.6-9.5 43.9-36.1 38.2-58.3-5.7-22.5-43.1-30-78.5-17.4-21 7.5-43.9 19.3-60.3 34.6C2.1 89.9-1 105.8.2 112.4c4.5 23.6 37 38.9 50 50.3-.7.4-1.3.7-1.8 1-6.5 3.2-31.3 16.2-37.5 29.9-7 15.5 1.1 26.7 6.5 28.2 16.7 4.6 33.9-3.7 43.1-17.4s8.1-31.6 3.8-39.8c0-.1-.1-.2-.2-.3l5.1-3c3.3-2 6.6-3.8 9.4-5.3-1.6 4.3-2.8 9.5-3.3 17-.7 8.8 2.9 20.2 7.6 24.7 2.1 2 4.6 2 6.2 2 5.5 0 8-4.6 10.8-10 3.4-6.6 6.4-14.4 6.4-14.4s-3.8 20.9 6.5 20.9c3.7 0 7.5-4.9 9.2-7.3s.1-.1.3-.5c.4-.6.6-1 .6-1v-.1c1.5-2.6 4.9-8.6 9.9-18.4 6.5-12.7 12.7-28.6 12.7-28.6s.6 3.9 2.5 10.3c1.1 3.8 3.5 7.9 5.3 12-1.5 2.1-2.4 3.3-2.4 3.3-1.2 1.6-2.5 3.3-4 5-5.1 6.1-11.2 13-12 15.1-1 2.4-.7 4.1 1.1 5.5 1.4 1 3.8 1.2 6.3 1 4.6-.3 7.8-1.4 9.4-2.2 2.5-.9 5.4-2.2 8.1-4.3 5-3.7 8-9 7.8-15.9-.1-3.8-1.4-7.7-2.9-11.3.5-.7.9-1.3 1.4-2 7.9-11.6 14-24.2 14-24.2s.6 3.9 2.5 10.3c.9 3.3 2.9 6.8 4.5 10.3-7.4 6-12 13-13.7 17.6-2.9 8.5-.7 12.3 3.7 13.2 2 .4 4.8-.5 6.8-1.4 2.6-.8 5.7-2.3 8.7-4.4 5-3.7 9.8-8.8 9.5-15.8-.1-3.2-1-6.3-2.2-9.4 6.3-2.6 14.4-4.1 24.8-2.9 22.3 2.6 26.7 16.5 25.8 22.4-.8 5.8-5.5 9-7.1 10-1.5 1-2.1 1.3-1.9 2 .2 1 .9 1 2.2.8 1.8-.3 11.7-4.7 12.1-15.5.9-13.6-12.2-28.6-35.4-28.4zM48.7 199.3c-7.4 8-17.7 11.1-22.1 8.5-4.8-2.8-2.9-14.6 6.2-23.1 5.5-5.2 12.6-10 17.3-13 1.1-.7 2.7-1.6 4.6-2.8.3-.2.5-.3.5-.3.4-.2.7-.5 1.1-.7 3.4 12.2.2 22.9-7.6 31.4zm53.8-36.6c-2.6 6.3-7.9 22.3-11.2 21.4-2.8-.7-4.5-12.9-.6-24.9 2-6 6.3-13.2 8.7-16 4-4.5 8.5-6 9.5-4.2 1.5 2.4-4.8 19.8-6.4 23.7zm44.4 21.2c-1.1.6-2.1.9-2.6.7-.3-.2.5-.9.5-.9s5.6-6 7.8-8.7c1.3-1.6 2.8-3.5 4.3-5.6v.6c0 7.1-6.9 12-10 13.9zm34.2-7.8c-.8-.6-.7-2.4 2-8.3 1-2.3 3.5-6.1 7.6-9.8.5 1.5.8 2.9.7 4.3 0 9-6.4 12.4-10.3 13.8z" style="fill:#cd6799"/></svg>