<svg xmlns="http://www.w3.org/2000/svg" viewBox="0 0 256 256" style="enable-background:new 0 0 256 256" xml:space="preserve"><path d="M256 128c0 70.7-57.3 128-128 128S0 198.7 0 128 57.3 0 128 0s128 57.3 128 128z"/><path d="M184 47.4c-13 .4-24.4 7.6-32.8 17.5-9.4 10.9-15.6 23.8-20.1 36.9-8-6.6-14.2-15.1-27.1-18.8-9.9-2.9-20.4-1.7-30 5.5-4.5 3.4-7.7 8.5-9.2 13.4-3.9 12.5 4.1 23.7 7.7 27.7l7.9 8.4c1.6 1.7 5.5 6 3.6 12.1-2.1 6.7-10.2 11.1-18.5 8.5-3.7-1.1-9-3.9-7.8-7.8.5-1.6 1.6-2.8 2.2-4.2.6-1.2.8-2.1 1-2.6 1.5-5-.6-11.4-5.9-13-5-1.5-10-.3-12 6.1-2.2 7.2 1.2 20.4 19.8 26.1 21.8 6.7 40.2-5.2 42.8-20.6 1.6-9.7-2.7-16.9-10.7-26.1l-6.5-7.2c-3.9-3.9-5.3-10.7-1.2-15.8 3.5-4.4 8.4-6.2 16.4-4 11.8 3.2 17 11.3 25.7 17.9-3.6 11.8-6 23.7-8.1 34.4l-1.3 7.9c-6.2 32.8-11 50.7-23.4 61.1-2.5 1.8-6.1 4.4-11.4 4.6-2.8.1-3.7-1.9-3.8-2.7-.1-2 1.6-2.9 2.7-3.8 1.7-.9 4.2-2.4 4-7.2-.2-5.7-4.9-10.6-11.7-10.4-5.1.2-12.8 5-12.5 13.7.3 9.1 8.7 15.8 21.5 15.4 6.8-.2 22-3 36.9-20.8 17.4-20.4 22.3-43.8 26-60.9l4.1-22.6c2.3.3 4.7.5 7.3.5 21.7.5 32.5-10.8 32.7-18.9.1-4.9-3.2-9.8-7.9-9.7-3.4.1-7.6 2.3-8.6 7-1 4.6 6.9 8.7.7 12.7-4.4 2.8-12.2 4.8-23.3 3.2l2-11.1c4.1-21.1 9.2-47 28.4-47.7 1.4-.1 6.5.1 6.6 3.5 0 1.1-.2 1.4-1.6 4-1.4 2-1.9 3.7-1.8 5.7.2 5.4 4.3 8.9 10.2 8.7 7.9-.3 10.2-8 10.1-11.9-.3-9.3-10.1-15.2-23.1-14.7z" style="fill:#fff"/></svg>