<svg xmlns="http://www.w3.org/2000/svg" xml:space="preserve" style="enable-background:new 0 0 256 256" viewBox="0 0 256 256"><path d="M125.2 51.1c-45 1.4-58.4 33.7-61.5 51.1 4-6.5 16.6-20.7 35.1-20.7 21.6 0 38.1 24.2 48.1 31.7 12.2 9.2 36.7 21.3 68.9 11.5 25.7-7.8 37.6-35.1 40.2-48.1-12.4 16.9-31.2 27.1-54.5 15.1-16.1-8.2-28-42.2-76.3-40.6zm-63.7 76.6c-45 1.4-58.4 33.7-61.5 51.1 4-6.5 16.6-20.7 35.1-20.7 21.6 0 38.1 24.2 48.1 31.7 12.2 9.2 36.7 21.3 68.9 11.5 25.7-7.8 37.6-35.1 40.2-48.1-12.4 16.9-31.2 27.1-54.5 15.1-16.1-8.2-28.1-42.1-76.3-40.6z" style="fill:#07b6d5"/></svg>