<svg xmlns="http://www.w3.org/2000/svg" viewBox="0 0 256 256" style="enable-background:new 0 0 256 256" xml:space="preserve"><path d="M25 0h206c13.8 0 25 11.2 25 25v206c0 13.8-11.2 25-25 25H25c-13.8 0-25-11.2-25-25V25C0 11.2 11.2 0 25 0z" style="fill:#3178c6"/><path d="M158.5 203.5v25c4.1 2.1 9 3.6 14.5 4.7s11.5 1.6 17.5 1.6 11.5-.6 17-1.7 10-3.1 14-5.5c4.1-2.6 7.5-6 9.5-10.5s3.6-9.5 3.6-16c0-4.6-.7-8.5-2.1-12s-3.3-6.5-6-9c-2.6-2.6-5.5-5-9-7s-7.5-4.1-12-6c-3.3-1.4-6-2.6-9-3.9-2.6-1.3-4.9-2.6-6.5-3.9-1.9-1.4-3.2-2.8-4.2-4.2-1-1.5-1.5-3.1-1.5-5 0-1.7.4-3.2 1.4-4.6s2.1-2.6 3.8-3.6 3.6-1.8 6-2.3c2.4-.6 4.9-.8 8-.8 2.1 0 4.3.2 6.5.5 2.3.3 4.6.8 7 1.4s4.6 1.4 7 2.4c2.2 1 4.2 2.1 6 3.4V123c-3.8-1.4-8-2.6-12.5-3.2s-9.5-1.1-15.5-1.1-11.5.7-17 1.9-10 3.2-14 6c-4.1 2.7-7 6-9.5 10.5-2.4 4.2-3.5 9-3.5 15 0 7.5 2.1 14 6.5 19 4.3 5.5 11 9.5 19.5 13.5 3.4 1.4 6.5 2.8 9.5 4.1s5.5 2.8 7.5 4.2c2.1 1.4 3.9 3.1 5 4.8 1.2 1.7 1.9 3.7 1.9 6 0 1.6-.4 3.1-1.1 4.5s-1.9 2.6-3.6 3.6-3.6 1.8-6 2.4c-2.4.6-5 .9-8.5.9-5.5 0-11-.9-16-2.9-5.5-1.9-10.5-4.8-15-8.5l.8-.2zm-42-61.5h32v-20.5H59V142h32v91.5h25.5V142z" style="fill-rule:evenodd;clip-rule:evenodd;fill:#fff"/></svg>