<svg xmlns="http://www.w3.org/2000/svg" viewBox="0 0 256 256" style="enable-background:new 0 0 256 256" xml:space="preserve"><path d="M256 128c0 70.7-57.3 128-128 128S0 198.7 0 128 57.3 0 128 0s128 57.3 128 128z" style="fill:#e95420"/><path d="M61.6 128c0 9.1-7.4 16.5-16.5 16.5s-16.5-7.4-16.5-16.5 7.4-16.5 16.5-16.5 16.5 7.4 16.5 16.5zm93.6 80c4.5 7.9 14.6 10.6 22.5 6 7.9-4.5 10.6-14.6 6-22.5-4.5-7.9-14.6-10.6-22.5-6-7.8 4.6-10.5 14.6-6 22.5zm28.5-143.6c4.5-7.9 1.9-17.9-6-22.5-7.9-4.5-17.9-1.8-22.5 6-4.5 7.9-1.8 17.9 6 22.5 7.9 4.6 18 1.9 22.5-6zM128 81.1c24.5 0 44.6 18.8 46.7 42.8l23.8-.4c-1.1-17.8-8.9-33.8-20.8-45.7-6.3 2.4-13.6 2.1-19.9-1.5-6.3-3.6-10.3-9.8-11.3-16.5-5.9-1.6-12.1-2.5-18.6-2.5-11.3 0-21.9 2.6-31.4 7.3l11.6 20.8c6.1-2.8 12.8-4.3 19.9-4.3zM81.1 128c0-15.9 7.9-29.9 20-38.4L88.8 69.2C74.6 78.6 64.1 93 59.6 110c5.3 4.2 8.6 10.7 8.6 18s-3.4 13.8-8.6 18c4.5 16.9 15 31.3 29.2 40.8l12.2-20.4c-12-8.5-19.9-22.5-19.9-38.4zm46.9 46.9c-7.1 0-13.8-1.6-19.8-4.4l-11.6 20.8c9.5 4.7 20.1 7.3 31.4 7.3 6.4 0 12.6-.9 18.6-2.5 1-6.7 5-12.9 11.3-16.5s13.6-4 19.9-1.5c11.9-11.8 19.6-27.8 20.8-45.7l-23.8-.4c-2.2 24.1-22.3 42.9-46.8 42.9z" style="fill:#fff"/></svg>