<svg xmlns="http://www.w3.org/2000/svg" xml:space="preserve" style="enable-background:new 0 0 256 256" viewBox="0 0 256 256"><path d="M246.9 27.1 194.2 1.6c-6.1-3-13.4-1.7-18.2 3.1L3.5 163c-4.6 4.3-4.6 11.6 0 15.9l14.1 12.9c3.8 3.5 9.5 3.7 13.6.6L239 33.7c7-5.3 17-.3 17 8.5v-.6c0-6.2-3.5-11.8-9.1-14.5z" style="fill:#0065a9"/><path d="m246.9 228.9-52.7 25.5c-6.1 3-13.4 1.7-18.2-3.1L3.5 93c-4.6-4.3-4.6-11.6 0-15.9l14.1-12.9c3.8-3.5 9.5-3.7 13.6-.6L239 222.3c7 5.3 17 .3 17-8.5v.6c0 6.2-3.5 11.8-9.1 14.5z" style="fill:#007acc"/><path d="M194.2 254.4c-6.1 3-13.4 1.7-18.2-3.1 5.9 5.9 16 1.7 16-6.7V11.4c0-8.4-10.1-12.6-16-6.7 4.8-4.8 12.1-6.1 18.2-3.1l52.7 25.5c5.5 2.7 9.1 8.3 9.1 14.5v172.9c0 6.2-3.5 11.8-9.1 14.5l-52.7 25.4z" style="fill:#1f9cf0"/><linearGradient id="a" x1="127.956" x2="127.956" y1="-251.995" y2="-508.01" gradientTransform="matrix(1 0 0 -1 0 -252)" gradientUnits="userSpaceOnUse"><stop offset="0" style="stop-color:#fff"/><stop offset="1" style="stop-color:#fff;stop-opacity:0"/></linearGradient><path d="M181.4 254.9c4 1.6 8.6 1.5 12.7-.5l52.7-25.5c5.5-2.7 9.1-8.3 9.1-14.5V41.6c0-6.2-3.5-11.8-9.1-14.5L194.1 1.6c-5.3-2.6-11.6-2-16.3 1.5-.7.5-1.3 1-1.9 1.6L75.1 97.2 31.2 63.7c-4.1-3.1-9.8-2.9-13.6.6L3.5 77.2c-4.6 4.2-4.7 11.6 0 15.9l38.1 35L3.5 163c-4.6 4.3-4.6 11.6 0 15.9l14.1 12.9c3.8 3.5 9.5 3.7 13.6.6l43.9-33.5 100.8 92.5c1.6 1.5 3.5 2.7 5.5 3.5zm10.5-185.3L115.4 128l76.5 58.4V69.6z" style="opacity:.25;fill-rule:evenodd;clip-rule:evenodd;fill:url(#a);enable-background:new"/></svg>