<svg xmlns="http://www.w3.org/2000/svg" xml:space="preserve" style="enable-background:new 0 0 256 256" viewBox="0 0 256 256"><style>.st0{fill:#00a0d2}</style><path d="M128 7.7c16.2 0 32 3.2 46.9 9.4 7.1 3 14 6.8 20.4 11.1 6.4 4.3 12.4 9.2 17.8 14.7s10.4 11.5 14.7 17.8c4.4 6.4 8.1 13.3 11.1 20.4 6.2 14.8 9.4 30.6 9.4 46.8s-3.2 32-9.4 46.9c-3 7.1-6.8 14-11.1 20.4-4.3 6.4-9.2 12.4-14.7 17.8s-11.4 10.4-17.8 14.7c-6.4 4.4-13.3 8.1-20.4 11.1-14.9 6.2-30.6 9.4-46.9 9.4s-32-3.2-46.8-9.4c-7.2-3-14-6.8-20.5-11.1-6.3-4.3-12.4-9.2-17.8-14.7s-10.4-11.4-14.7-17.8c-4.4-6.4-8.1-13.3-11.1-20.4-6.2-14.8-9.4-30.6-9.4-46.8s3.2-32 9.4-46.8c3-7.2 6.8-14 11.1-20.5 4.3-6.3 9.2-12.4 14.7-17.8s11.5-10.4 17.8-14.7c6.4-4.4 13.3-8.1 20.4-11.1C96 10.9 111.8 7.7 128 7.7m0-7.7C57.3 0 0 57.3 0 128s57.3 128 128 128 128-57.3 128-128S198.7 0 128 0z" class="st0"/><path d="M21.4 128c0 42.2 24.6 78.7 60.1 96l-51-139.4c-5.9 13.2-9.2 28-9.1 43.4zm178.6-5.4c0-13.2-4.8-22.3-8.8-29.4-5.4-8.8-10.5-16.2-10.5-25 0-9.8 7.4-19 17.9-19 .4 0 .9 0 1.4.1-19-17.4-44.2-28-72.1-28-37.2 0-70.1 19.1-89.1 48.1 2.5.1 4.8.2 6.8.2 11.2 0 28.4-1.3 28.4-1.3 5.8-.3 6.4 8.1.7 8.8 0 0-5.8.7-12.2 1l38.8 115.5 23.3-70L108.2 78c-5.8-.3-11.2-1-11.2-1-5.8-.3-5.1-9.2.7-8.8 0 0 17.6 1.3 28.1 1.3 11.2 0 28.5-1.3 28.5-1.3 5.8-.3 6.4 8.1.7 8.8 0 0-5.8.7-12.2 1l38.6 114.6 11-34.9c4.7-15.2 7.6-26 7.6-35.1zm-70.1 14.8-32 93c9.6 2.8 19.7 4.4 30.1 4.4 12.4 0 24.4-2.1 35.4-6.1-.3-.4-.6-.9-.8-1.4l-32.7-89.9zm91.7-60.5c.4 3.4.7 7.1.7 10.9 0 10.8-2.1 23-8.1 38.2l-32.6 94.2c31.7-18.5 53.1-52.8 53.1-92.2 0-18.6-4.7-36-13.1-51.1z" class="st0"/></svg>